<?xml version="1.0" encoding="UTF-8" standalone="no"?>
<!-- Created with Inkscape (http://www.inkscape.org/) -->

<svg
   xmlns:dc="http://purl.org/dc/elements/1.1/"
   xmlns:cc="http://creativecommons.org/ns#"
   xmlns:rdf="http://www.w3.org/1999/02/22-rdf-syntax-ns#"
   xmlns:svg="http://www.w3.org/2000/svg"
   xmlns="http://www.w3.org/2000/svg"
   xmlns:sodipodi="http://sodipodi.sourceforge.net/DTD/sodipodi-0.dtd"
   xmlns:inkscape="http://www.inkscape.org/namespaces/inkscape"
   width="210mm"
   height="297mm"
   viewBox="0 0 744.09448819 1052.3622047"
   id="svg4150"
   version="1.1"
   inkscape:version="0.91 r13725"
   sodipodi:docname="calculator.svg">
  <defs
     id="defs4152" />
  <sodipodi:namedview
     id="base"
     pagecolor="#ffffff"
     bordercolor="#666666"
     borderopacity="1.0"
     inkscape:pageopacity="0.0"
     inkscape:pageshadow="2"
     inkscape:zoom="0.7"
     inkscape:cx="107.14286"
     inkscape:cy="520"
     inkscape:document-units="px"
     inkscape:current-layer="layer1"
     showgrid="false"
     inkscape:window-width="1440"
     inkscape:window-height="802"
     inkscape:window-x="0"
     inkscape:window-y="1"
     inkscape:window-maximized="1" />
  <metadata
     id="metadata4155">
    <rdf:RDF>
      <cc:Work
         rdf:about="">
        <dc:format>image/svg+xml</dc:format>
        <dc:type
           rdf:resource="http://purl.org/dc/dcmitype/StillImage" />
        <dc:title></dc:title>
      </cc:Work>
    </rdf:RDF>
  </metadata>
  <g
     inkscape:label="Layer 1"
     inkscape:groupmode="layer"
     id="layer1">
    <path
       id="path4748"
       d="m 234.94816,322.50007 c -0.86687,0 -1.3003,0.65582 -1.3003,1.4756 l 0,128.0488 c 0,0.81978 0.57791,1.4756 1.3003,1.4756 l 98.3894,0 c 0.72238,0 1.3003,-0.65582 1.3003,-1.4756 l 0,-128.0488 c 0,-0.98374 -0.57792,-1.4756 -1.3003,-1.4756 l -98.3894,0 z m 13.14748,16.39549 72.23891,0 0,32.79099 -72.23891,0 0,-32.79099 z m 0,49.18649 14.44778,0 0,16.39549 -14.44778,0 0,-16.39549 z m 28.89557,0 14.44778,0 0,16.39549 -14.44778,0 0,-16.39549 z m 28.89556,0 14.44778,0 0,49.18648 -14.44778,0 0,-49.18648 z m -57.79113,32.79099 14.44778,0 0,16.39549 -14.44778,0 0,-16.39549 z m 28.89557,0 14.44778,0 0,16.39549 -14.44778,0 0,-16.39549 z"
       inkscape:connector-curvature="0"
       style="fill:#2196f3;fill-opacity:1;stroke-width:4;stroke-miterlimit:4;stroke-dasharray:none;stroke:#000000;stroke-opacity:1"
       inkscape:export-xdpi="90"
       inkscape:export-ydpi="90" />
  </g>
</svg>
