<?xml version="1.0" encoding="UTF-8" standalone="no"?>
<!-- Created with Inkscape (http://www.inkscape.org/) -->

<svg
   xmlns:dc="http://purl.org/dc/elements/1.1/"
   xmlns:cc="http://creativecommons.org/ns#"
   xmlns:rdf="http://www.w3.org/1999/02/22-rdf-syntax-ns#"
   xmlns:svg="http://www.w3.org/2000/svg"
   xmlns="http://www.w3.org/2000/svg"
   xmlns:sodipodi="http://sodipodi.sourceforge.net/DTD/sodipodi-0.dtd"
   xmlns:inkscape="http://www.inkscape.org/namespaces/inkscape"
   width="210mm"
   height="297mm"
   viewBox="0 0 744.09448819 1052.3622047"
   id="svg4150"
   version="1.1"
   inkscape:version="0.91 r13725"
   sodipodi:docname="calculator.svg">
  <defs
     id="defs4152" />
  <sodipodi:namedview
     id="base"
     pagecolor="#ffffff"
     bordercolor="#666666"
     borderopacity="1.0"
     inkscape:pageopacity="0.0"
     inkscape:pageshadow="2"
     inkscape:zoom="0.98994949"
     inkscape:cx="349.57947"
     inkscape:cy="621.01525"
     inkscape:document-units="px"
     inkscape:current-layer="layer1"
     showgrid="false"
     inkscape:window-width="1440"
     inkscape:window-height="802"
     inkscape:window-x="0"
     inkscape:window-y="1"
     inkscape:window-maximized="1" />
  <metadata
     id="metadata4155">
    <rdf:RDF>
      <cc:Work
         rdf:about="">
        <dc:format>image/svg+xml</dc:format>
        <dc:type
           rdf:resource="http://purl.org/dc/dcmitype/StillImage" />
        <dc:title></dc:title>
      </cc:Work>
    </rdf:RDF>
  </metadata>
  <g
     inkscape:label="Layer 1"
     inkscape:groupmode="layer"
     id="layer1">
    <path
       id="path4748"
       d="m 234.23904,361.45431 c -0.71196,0 -1.06793,0.4632 -1.06793,1.04219 l 0,90.43814 c 0,0.579 0.47464,1.04218 1.06793,1.04218 l 80.80763,0 c 0.59328,0 1.06794,-0.46318 1.06794,-1.04218 l 0,-90.43814 c 0,-0.69479 -0.47466,-1.04219 -1.06794,-1.04219 l -80.80763,0 z m 10.79809,11.57978 59.33012,0 0,23.15959 -59.33012,0 0,-23.15959 z m 0,34.73938 11.86603,0 0,11.57979 -11.86603,0 0,-11.57979 z m 23.73205,0 11.86601,0 0,11.57979 -11.86601,0 0,-11.57979 z m 23.73204,0 11.86603,0 0,34.73936 -11.86603,0 0,-34.73936 z m -47.46409,23.15957 11.86603,0 0,11.57979 -11.86603,0 0,-11.57979 z m 23.73205,0 11.86601,0 0,11.57979 -11.86601,0 0,-11.57979 z"
       inkscape:connector-curvature="0"
       style="fill:#2196f3;fill-opacity:1;stroke:#000000;stroke-width:3.0464921;stroke-miterlimit:4;stroke-dasharray:none;stroke-opacity:1"
       inkscape:export-xdpi="90"
       inkscape:export-ydpi="90"
       inkscape:export-filename="/Users/erikrood/path4748.png" />
  </g>
</svg>
