<?xml version="1.0" encoding="UTF-8" standalone="no"?>
<!-- Created with Inkscape (http://www.inkscape.org/) -->

<svg
   xmlns:dc="http://purl.org/dc/elements/1.1/"
   xmlns:cc="http://creativecommons.org/ns#"
   xmlns:rdf="http://www.w3.org/1999/02/22-rdf-syntax-ns#"
   xmlns:svg="http://www.w3.org/2000/svg"
   xmlns="http://www.w3.org/2000/svg"
   xmlns:sodipodi="http://sodipodi.sourceforge.net/DTD/sodipodi-0.dtd"
   xmlns:inkscape="http://www.inkscape.org/namespaces/inkscape"
   width="210mm"
   height="297mm"
   viewBox="0 0 744.09448819 1052.3622047"
   id="svg7023"
   version="1.1"
   inkscape:version="0.91 r13725"
   sodipodi:docname="scale_draft.svg"
   inkscape:export-filename="/Users/erikrood/Desktop/path4299.png"
   inkscape:export-xdpi="90"
   inkscape:export-ydpi="90">
  <defs
     id="defs7025" />
  <sodipodi:namedview
     id="base"
     pagecolor="#ffffff"
     bordercolor="#666666"
     borderopacity="1.0"
     inkscape:pageopacity="0.0"
     inkscape:pageshadow="2"
     inkscape:zoom="0.9899495"
     inkscape:cx="325.87147"
     inkscape:cy="771.14908"
     inkscape:document-units="px"
     inkscape:current-layer="layer1"
     showgrid="false"
     inkscape:snap-global="false"
     inkscape:window-width="1440"
     inkscape:window-height="802"
     inkscape:window-x="0"
     inkscape:window-y="1"
     inkscape:window-maximized="1" />
  <metadata
     id="metadata7028">
    <rdf:RDF>
      <cc:Work
         rdf:about="">
        <dc:format>image/svg+xml</dc:format>
        <dc:type
           rdf:resource="http://purl.org/dc/dcmitype/StillImage" />
        <dc:title></dc:title>
      </cc:Work>
    </rdf:RDF>
  </metadata>
  <g
     inkscape:label="Layer 1"
     inkscape:groupmode="layer"
     id="layer1">
    <rect
       style="display:inline;opacity:1;fill:#429aff;fill-opacity:1;stroke:#000000;stroke-width:4.60188818;stroke-miterlimit:4;stroke-dasharray:none;stroke-opacity:1"
       id="rect7661"
       width="213.63512"
       height="218.44986"
       x="277.24948"
       y="60.061787" />
    <path
       style="display:inline;fill:none;fill-rule:evenodd;stroke:#000000;stroke-width:4.13540602;stroke-linecap:butt;stroke-linejoin:miter;stroke-miterlimit:4;stroke-dasharray:none;stroke-opacity:1"
       d="m 579.54513,126.74333 5.12728,12.85753"
       id="path11920"
       inkscape:connector-curvature="0" />
    <path
       sodipodi:nodetypes="cc"
       inkscape:connector-curvature="0"
       id="path11952"
       d="m 276.09957,173.63557 c -32.75564,-8.91268 -62.08538,-25.91106 -89.72764,-46.89224"
       style="display:inline;fill:none;fill-rule:evenodd;stroke:#000000;stroke-width:4.13540602;stroke-linecap:butt;stroke-linejoin:miter;stroke-miterlimit:4;stroke-dasharray:none;stroke-opacity:1" />
    <path
       sodipodi:nodetypes="cc"
       style="display:inline;fill:none;fill-rule:evenodd;stroke:#000000;stroke-width:4.3674984;stroke-linecap:butt;stroke-linejoin:miter;stroke-miterlimit:4;stroke-dasharray:none;stroke-opacity:1"
       d="M 276.07469,188.48749 C 238.63166,177.90202 206.13288,162.31545 181.31125,138.96348"
       id="path11954"
       inkscape:connector-curvature="0" />
    <path
       style="display:inline;opacity:0;fill:#1642f6;fill-opacity:0.95238097;stroke:#000000;stroke-width:0;stroke-miterlimit:4;stroke-dasharray:none;stroke-opacity:1"
       d="m 493.18329,180.60615 0.12996,-4.87516 2.49259,-0.71356 c 24.26818,-6.94748 50.51317,-20.18738 76.36301,-38.52314 3.4896,-2.47523 6.51281,-4.54116 6.7183,-4.59096 0.20547,-0.0498 0.83949,1.35344 1.40896,3.1183 0.56946,1.76483 1.17246,3.58244 1.34002,4.03912 0.22367,0.60962 -0.63264,1.61859 -3.22175,3.79607 -20.19471,16.98415 -46.04055,30.2836 -78.88629,40.59237 l -6.47455,2.03207 0.12983,-4.87511 z"
       id="path12021"
       inkscape:connector-curvature="0" />
    <path
       style="display:inline;fill:none;fill-rule:evenodd;stroke:#000000;stroke-width:4.36297083;stroke-linecap:butt;stroke-linejoin:miter;stroke-miterlimit:4;stroke-dasharray:none;stroke-opacity:1"
       d="m 324.74429,197.34928 c 40.06626,42.09605 80.79005,43.51158 122.23156,0.52309"
       id="path11665"
       inkscape:connector-curvature="0"
       sodipodi:nodetypes="cc" />
    <ellipse
       style="opacity:1;fill:#ffffff;fill-opacity:1;stroke:#000000;stroke-width:5.16095686;stroke-miterlimit:4;stroke-dasharray:none;stroke-opacity:1"
       id="path7573"
       cx="382.23819"
       cy="66.882751"
       rx="55.607746"
       ry="43.309914" />
    <path
       style="fill:#ff0000;fill-opacity:1;fill-rule:evenodd;stroke:#e32100;stroke-width:6.89234352;stroke-linecap:butt;stroke-linejoin:miter;stroke-miterlimit:4;stroke-dasharray:none;stroke-opacity:1"
       d="m 382.94546,67.182596 c 0,-7.380864 0,6.563527 0,-41.219805"
       id="path11607"
       inkscape:connector-curvature="0"
       sodipodi:nodetypes="cc" />
    <ellipse
       style="opacity:1;fill:#ffffff;fill-opacity:1;stroke:#030000;stroke-width:4.13540602;stroke-miterlimit:4;stroke-dasharray:none;stroke-opacity:0.98089169"
       id="path11609"
       cx="335.40594"
       cy="-147.25119"
       rx="13.555165"
       ry="15.99649"
       transform="scale(1,-1)" />
    <ellipse
       transform="scale(1,-1)"
       ry="15.99649"
       rx="13.555165"
       cy="-147.26672"
       cx="434.94693"
       id="ellipse11631"
       style="opacity:1;fill:#ffffff;fill-opacity:1;stroke:#030000;stroke-width:4.13540602;stroke-miterlimit:4;stroke-dasharray:none;stroke-opacity:0.98089169" />
    <path
       style="fill:none;fill-rule:evenodd;stroke:#000000;stroke-width:4.13540602;stroke-linecap:butt;stroke-linejoin:miter;stroke-miterlimit:4;stroke-dasharray:none;stroke-opacity:1"
       d="m 439.15495,182.09927 c 6.71031,22.97088 16.94059,25.18711 27.19161,27.26857"
       id="path11670"
       inkscape:connector-curvature="0"
       sodipodi:nodetypes="cc" />
    <path
       sodipodi:nodetypes="cc"
       inkscape:connector-curvature="0"
       id="path11672"
       d="m 333.1274,180.72329 c -6.71031,22.97867 -16.94058,25.18801 -27.19161,27.27502"
       style="fill:none;fill-rule:evenodd;stroke:#000000;stroke-width:4.13540602;stroke-linecap:butt;stroke-linejoin:miter;stroke-miterlimit:4;stroke-dasharray:none;stroke-opacity:1" />
    <path
       inkscape:connector-curvature="0"
       id="path11756"
       d="m 396.22271,278.23018 c 26.27561,33.95137 49.54816,69.08401 68.57759,105.88573"
       style="fill:none;fill-rule:evenodd;stroke:#000000;stroke-width:4.13540602;stroke-linecap:butt;stroke-linejoin:miter;stroke-miterlimit:4;stroke-dasharray:none;stroke-opacity:1"
       sodipodi:nodetypes="cc" />
    <ellipse
       style="opacity:0;fill:#000000;fill-opacity:1;stroke:#030000;stroke-width:4.13540602;stroke-miterlimit:4;stroke-dasharray:none;stroke-opacity:0.98089169"
       id="path11758"
       cx="476.09021"
       cy="383.62787"
       rx="26.964985"
       ry="9.8938694" />
    <ellipse
       style="opacity:0;fill:#1a1a1a;fill-opacity:0.92890996;stroke:#030000;stroke-width:4.13540602;stroke-miterlimit:4;stroke-dasharray:none;stroke-opacity:0.93364928"
       id="path11760"
       cx="406.52509"
       cy="418.9249"
       rx="13.142598"
       ry="2.4066167" />
    <ellipse
       style="opacity:0;fill:#1a1a1a;fill-opacity:0.92890996;stroke:#030000;stroke-width:4.13540602;stroke-miterlimit:4;stroke-dasharray:none;stroke-opacity:0.93364928"
       id="path11762"
       cx="455.9231"
       cy="422.40112"
       rx="40.787373"
       ry="28.879404" />
    <ellipse
       style="opacity:0;fill:#1a1a1a;fill-opacity:0.92890996;stroke:#030000;stroke-width:4.13540602;stroke-miterlimit:4;stroke-dasharray:none;stroke-opacity:0.93364928"
       id="path11764"
       cx="446.40604"
       cy="408.22879"
       rx="42.600151"
       ry="30.751215" />
    <ellipse
       transform="scale(1,-1)"
       ry="15.15989"
       rx="27.260176"
       cy="-387.74884"
       cx="489.69315"
       id="ellipse11786"
       style="opacity:1;fill:#f64100;fill-opacity:1;stroke:#030000;stroke-width:5.70907354;stroke-miterlimit:4;stroke-dasharray:none;stroke-opacity:0.98089169" />
    <ellipse
       style="opacity:1;fill:#f64100;fill-opacity:1;stroke:#030000;stroke-width:5.70907354;stroke-miterlimit:4;stroke-dasharray:none;stroke-opacity:0.98089169"
       id="ellipse11788"
       cx="-293.76138"
       cy="-388.12677"
       rx="27.260176"
       ry="15.15989"
       transform="scale(-1,-1)" />
    <path
       style="fill:none;fill-rule:evenodd;stroke:#000000;stroke-width:4.13540602;stroke-linecap:butt;stroke-linejoin:miter;stroke-miterlimit:4;stroke-dasharray:none;stroke-opacity:1"
       d="m 410.72488,278.44412 c 32.83794,43.14572 44.22245,64.06553 63.13927,96.25927"
       id="path11850"
       inkscape:connector-curvature="0"
       sodipodi:nodetypes="cc" />
    <path
       style="fill:none;fill-rule:evenodd;stroke:#000000;stroke-width:4.13540602;stroke-linecap:butt;stroke-linejoin:miter;stroke-miterlimit:4;stroke-dasharray:none;stroke-opacity:1"
       d="m 316.33966,126.97553 c 7.13367,-5.46016 14.67153,-10.12528 25.37882,-8.55687"
       id="path11854"
       inkscape:connector-curvature="0"
       sodipodi:nodetypes="cc" />
    <path
       sodipodi:nodetypes="cc"
       inkscape:connector-curvature="0"
       id="path11876"
       d="m 452.58394,126.97553 c -7.13367,-5.46016 -14.67154,-10.12528 -25.37883,-8.55687"
       style="fill:none;fill-rule:evenodd;stroke:#000000;stroke-width:4.13540602;stroke-linecap:butt;stroke-linejoin:miter;stroke-miterlimit:4;stroke-dasharray:none;stroke-opacity:1" />
    <ellipse
       transform="scale(1,-1)"
       ry="8.9004269"
       rx="7.5420775"
       cy="-142.44366"
       cx="336.67017"
       id="ellipse11882"
       style="opacity:1;fill:#330600;fill-opacity:1;stroke:#000000;stroke-width:1.53395629;stroke-miterlimit:4;stroke-dasharray:none;stroke-opacity:0.9905213" />
    <ellipse
       style="opacity:1;fill:#330600;fill-opacity:1;stroke:#000000;stroke-width:1.53395629;stroke-miterlimit:4;stroke-dasharray:none;stroke-opacity:1"
       id="ellipse11906"
       cx="434.33328"
       cy="-141.58792"
       rx="7.5420775"
       ry="8.9004269"
       transform="scale(1,-1)" />
    <ellipse
       style="opacity:0;fill:#330600;fill-opacity:1;stroke:#000000;stroke-width:0;stroke-miterlimit:4;stroke-dasharray:none;stroke-opacity:0.9905213"
       id="path11924"
       cx="611.43054"
       cy="108.40239"
       rx="0.16022794"
       ry="4.3488784" />
    <path
       style="opacity:0;fill:#330600;fill-opacity:1;stroke:#000000;stroke-width:0;stroke-miterlimit:4;stroke-dasharray:none;stroke-opacity:0.9905213"
       id="path11926"
       sodipodi:type="arc"
       sodipodi:cx="608.86682"
       sodipodi:cy="110.29323"
       sodipodi:rx="1.4420515"
       sodipodi:ry="7.7523494"
       sodipodi:start="0"
       sodipodi:end="5.1836104"
       d="m 610.30887,110.29323 a 1.4420515,7.7523494 0 0 1 -1.05061,7.46128 1.4420515,7.7523494 0 0 1 -1.62098,-3.41063 1.4420515,7.7523494 0 0 1 0.1706,-9.31288 1.4420515,7.7523494 0 0 1 1.7136,-1.64523 l -0.65466,6.90746 z" />
    <ellipse
       style="opacity:1;fill:#9e9e9e;fill-opacity:0.97989951;stroke:#030000;stroke-width:3.96159577;stroke-miterlimit:4;stroke-dasharray:none;stroke-opacity:0.98089169"
       id="ellipse11950"
       cx="593.09204"
       cy="-128.35857"
       rx="11.552199"
       ry="17.225386"
       transform="scale(1,-1)" />
    <ellipse
       transform="scale(-1,-1)"
       ry="17.225386"
       rx="11.552199"
       cy="-128.35857"
       cx="-174.74783"
       id="ellipse11956"
       style="opacity:1;fill:#9e9e9e;fill-opacity:0.98039216;stroke:#030000;stroke-width:3.96159577;stroke-miterlimit:4;stroke-dasharray:none;stroke-opacity:0.98089169" />
    <path
       style="opacity:0;fill:#1616f6;fill-opacity:0.95238097;stroke:#000000;stroke-width:0;stroke-miterlimit:4;stroke-dasharray:none;stroke-opacity:0.9905213"
       d="m 311.47714,373.88148 -3.00604,-1.93976 7.76458,-13.16384 c 16.13787,-27.35981 28.25809,-45.68703 46.73916,-70.67511 l 4.98511,-6.74036 4.24108,-0.0348 4.24108,-0.035 -3.78788,4.86945 c -24.05604,30.92493 -42.07498,58.59145 -56.30288,86.44828 -0.93897,1.83839 -1.74342,3.31296 -1.78769,3.27677 -0.0444,-0.036 -1.43321,-0.93861 -3.08652,-2.0055 z"
       id="path11966"
       inkscape:connector-curvature="0" />
    <path
       style="opacity:0;fill:#1616f6;fill-opacity:0.95238097;stroke:#000000;stroke-width:0;stroke-miterlimit:4;stroke-dasharray:none;stroke-opacity:0.9905213"
       d="m 311.47714,373.88148 -3.00604,-1.93976 7.76458,-13.16384 c 16.13787,-27.35981 28.25809,-45.68703 46.73916,-70.67511 l 4.98511,-6.74036 4.24108,-0.0348 4.24108,-0.035 -3.78788,4.86945 c -24.05604,30.92493 -42.07498,58.59145 -56.30288,86.44828 -0.93897,1.83839 -1.74342,3.31296 -1.78769,3.27677 -0.0444,-0.036 -1.43321,-0.93861 -3.08652,-2.0055 z"
       id="path11968"
       inkscape:connector-curvature="0" />
    <path
       style="opacity:0;fill:#1616f6;fill-opacity:0.95238097;stroke:#000000;stroke-width:0;stroke-miterlimit:4;stroke-dasharray:none;stroke-opacity:0.9905213"
       d="m 311.47714,373.88148 -3.00604,-1.93976 7.76458,-13.16384 c 16.13787,-27.35981 28.25809,-45.68703 46.73916,-70.67511 l 4.98511,-6.74036 4.24108,-0.0348 4.24108,-0.035 -3.78788,4.86945 c -24.05604,30.92493 -42.07498,58.59145 -56.30288,86.44828 -0.93897,1.83839 -1.74342,3.31296 -1.78769,3.27677 -0.0444,-0.036 -1.43321,-0.93861 -3.08652,-2.0055 z"
       id="path11970"
       inkscape:connector-curvature="0" />
    <path
       style="opacity:0;fill:#1616f6;fill-opacity:0.95238097;stroke:#000000;stroke-width:0;stroke-miterlimit:4;stroke-dasharray:none;stroke-opacity:0.9905213"
       d="m 311.47714,373.88148 -3.00604,-1.93976 7.76458,-13.16384 c 16.13787,-27.35981 28.25809,-45.68703 46.73916,-70.67511 l 4.98511,-6.74036 4.24108,-0.0348 4.24108,-0.035 -3.78788,4.86945 c -24.05604,30.92493 -42.07498,58.59145 -56.30288,86.44828 -0.93897,1.83839 -1.74342,3.31296 -1.78769,3.27677 -0.0444,-0.036 -1.43321,-0.93861 -3.08652,-2.0055 z"
       id="path11972"
       inkscape:connector-curvature="0" />
    <path
       style="opacity:0;fill:#1616f6;fill-opacity:0.95238097;stroke:#000000;stroke-width:0;stroke-miterlimit:4;stroke-dasharray:none;stroke-opacity:0.9905213"
       d="m 311.47714,373.88148 -3.00604,-1.93976 7.76458,-13.16384 c 16.13787,-27.35981 28.25809,-45.68703 46.73916,-70.67511 l 4.98511,-6.74036 4.24108,-0.0348 4.24108,-0.035 -3.78788,4.86945 c -24.05604,30.92493 -42.07498,58.59145 -56.30288,86.44828 -0.93897,1.83839 -1.74342,3.31296 -1.78769,3.27677 -0.0444,-0.036 -1.43321,-0.93861 -3.08652,-2.0055 z"
       id="path11974"
       inkscape:connector-curvature="0" />
    <path
       sodipodi:nodetypes="cc"
       inkscape:connector-curvature="0"
       id="path11852"
       d="m 367.42123,278.44412 c -32.83796,43.14572 -44.22243,64.06553 -63.13926,96.25927"
       style="fill:#429aff;fill-opacity:1;fill-rule:evenodd;stroke:#000000;stroke-width:4.13540602;stroke-linecap:butt;stroke-linejoin:miter;stroke-miterlimit:4;stroke-dasharray:none;stroke-opacity:1" />
    <path
       style="fill:none;fill-rule:evenodd;stroke:#000000;stroke-width:4.02196074;stroke-linecap:butt;stroke-linejoin:miter;stroke-miterlimit:4;stroke-dasharray:none;stroke-opacity:1"
       d="m 381.54095,278.72236 c -11.47744,14.08435 -22.4274,28.52281 -32.60309,43.48105 -12.80465,18.82276 -24.38325,38.46856 -34.2441,59.26749"
       id="path11754"
       inkscape:connector-curvature="0"
       sodipodi:nodetypes="csc" />
    <path
       style="opacity:0;fill:#1616f6;fill-opacity:0.95238097;stroke:#0035ee;stroke-width:0;stroke-miterlimit:4;stroke-dasharray:none;stroke-opacity:0.9905213"
       d="m 311.47714,373.88148 -3.00604,-1.93976 7.76458,-13.16384 c 16.13787,-27.35981 28.25809,-45.68703 46.73916,-70.67511 l 4.98511,-6.74036 4.22825,-0.0348 4.22824,-0.035 -2.41548,3.14248 c -27.35879,35.59365 -43.08,59.65701 -56.55895,86.57083 -1.36262,2.72082 -2.58579,4.91738 -2.71817,4.88119 -0.13226,-0.036 -1.59339,-0.93861 -3.2467,-2.0055 z"
       id="path11978"
       inkscape:connector-curvature="0" />
    <path
       style="fill:none;fill-rule:evenodd;stroke:#000000;stroke-width:1.37846851px;stroke-linecap:butt;stroke-linejoin:miter;stroke-opacity:1"
       d="m 365.51111,278.80632 14.72876,0.80219"
       id="path11980"
       inkscape:connector-curvature="0" />
    <path
       style="opacity:0;fill:#1616f6;fill-opacity:0.95238097;stroke:#000000;stroke-width:0;stroke-miterlimit:4;stroke-dasharray:none;stroke-opacity:1"
       d="m 314.12493,375.61248 c -0.78837,-0.69452 -4.42859,-2.82831 -5.23005,-3.06568 -0.34124,-0.10107 -0.61857,-0.261 -0.61627,-0.35534 0.0116,-0.45355 17.10035,-29.19219 20.93227,-35.20122 4.46658,-7.00425 14.67158,-22.46498 17.90384,-27.12454 3.9364,-5.67468 11.74543,-16.44677 17.14712,-23.6535 l 3.72076,-4.96407 4.41091,-0.005 4.4109,-0.005 -1.14367,1.40389 c -8.39067,10.29949 -20.56934,26.80035 -29.45588,39.90974 -10.72788,15.82561 -22.07432,35.14179 -29.64763,50.47206 -0.8537,1.7281 -1.61352,3.13818 -1.68848,3.13353 -0.075,-0.003 -0.4097,-0.24931 -0.74382,-0.54368 z"
       id="path11983"
       inkscape:connector-curvature="0" />
    <path
       style="opacity:0;fill:#1616f6;fill-opacity:0.95238097;stroke:#000000;stroke-width:0;stroke-miterlimit:4;stroke-dasharray:none;stroke-opacity:1"
       d="m 314.12493,375.61248 c -0.78837,-0.69452 -4.42859,-2.82831 -5.23005,-3.06568 -0.34124,-0.10107 -0.61857,-0.261 -0.61627,-0.35534 0.0116,-0.45355 17.10035,-29.19219 20.93227,-35.20122 4.46658,-7.00425 14.67158,-22.46498 17.90384,-27.12454 3.9364,-5.67468 11.74543,-16.44677 17.14712,-23.6535 l 3.72076,-4.96407 4.41091,-0.005 4.4109,-0.005 -1.14367,1.40389 c -8.39067,10.29949 -20.56934,26.80035 -29.45588,39.90974 -10.72788,15.82561 -22.07432,35.14179 -29.64763,50.47206 -0.8537,1.7281 -1.61352,3.13818 -1.68848,3.13353 -0.075,-0.003 -0.4097,-0.24931 -0.74382,-0.54368 z"
       id="path11985"
       inkscape:connector-curvature="0" />
    <path
       style="opacity:0;fill:#1616f6;fill-opacity:0.95238097;stroke:#000000;stroke-width:0;stroke-miterlimit:4;stroke-dasharray:none;stroke-opacity:1"
       d="m 314.12493,375.61248 c -0.78837,-0.69452 -4.42859,-2.82831 -5.23005,-3.06568 -0.34124,-0.10107 -0.61857,-0.261 -0.61627,-0.35534 0.0116,-0.45355 17.10035,-29.19219 20.93227,-35.20122 4.46658,-7.00425 14.67158,-22.46498 17.90384,-27.12454 3.9364,-5.67468 11.74543,-16.44677 17.14712,-23.6535 l 3.72076,-4.96407 4.41091,-0.005 4.4109,-0.005 -1.14367,1.40389 c -8.39067,10.29949 -20.56934,26.80035 -29.45588,39.90974 -10.72788,15.82561 -22.07432,35.14179 -29.64763,50.47206 -0.8537,1.7281 -1.61352,3.13818 -1.68848,3.13353 -0.075,-0.003 -0.4097,-0.24931 -0.74382,-0.54368 z"
       id="path11987"
       inkscape:connector-curvature="0" />
    <path
       style="opacity:0;fill:#1616f6;fill-opacity:0.95238097;stroke:#000000;stroke-width:0;stroke-miterlimit:4;stroke-dasharray:none;stroke-opacity:1"
       d="m 314.12493,375.61248 c -0.78837,-0.69452 -4.42859,-2.82831 -5.23005,-3.06568 -0.34124,-0.10107 -0.61857,-0.261 -0.61627,-0.35534 0.0116,-0.45355 17.10035,-29.19219 20.93227,-35.20122 4.45943,-6.993 14.66988,-22.46253 17.90384,-27.12552 4.27534,-6.16452 12.0263,-16.83472 17.65297,-24.30163 l 4.29633,-5.70141 3.65133,0.1676 c 2.00823,0.092 3.88295,0.22407 4.16604,0.29307 0.45242,0.11021 -0.0276,0.81317 -3.96544,5.80668 -23.71756,30.0757 -42.90277,59.65539 -56.35872,86.89363 -0.8537,1.72807 -1.61352,3.13816 -1.68848,3.13348 -0.075,-0.003 -0.4097,-0.24929 -0.74382,-0.54366 z"
       id="path11989"
       inkscape:connector-curvature="0" />
    <path
       style="opacity:0;fill:#1818d7;fill-opacity:0.95238097;stroke:#000000;stroke-width:0;stroke-miterlimit:4;stroke-dasharray:none;stroke-opacity:1"
       d="m 314.12493,375.61248 c -0.78837,-0.69452 -4.42859,-2.82831 -5.23005,-3.06568 -0.34124,-0.10107 -0.61857,-0.261 -0.61627,-0.35534 0.0116,-0.45355 17.10035,-29.19219 20.93227,-35.20122 4.45943,-6.993 14.66988,-22.46253 17.90384,-27.12552 4.27534,-6.16452 12.0263,-16.83472 17.65297,-24.30163 l 4.29633,-5.70141 3.65133,0.1676 c 2.00823,0.092 3.88295,0.22407 4.16604,0.29307 0.45242,0.11021 -0.0276,0.81317 -3.96544,5.80668 -23.71756,30.0757 -42.90277,59.65539 -56.35872,86.89363 -0.8537,1.72807 -1.61352,3.13816 -1.68848,3.13348 -0.075,-0.003 -0.4097,-0.24929 -0.74382,-0.54366 z"
       id="path11991"
       inkscape:connector-curvature="0" />
    <path
       style="opacity:0;fill:#1818d7;fill-opacity:0.95238097;stroke:#000000;stroke-width:0;stroke-miterlimit:4;stroke-dasharray:none;stroke-opacity:1"
       d="m 314.12493,375.61248 c -0.78837,-0.69452 -4.42859,-2.82831 -5.23005,-3.06568 -0.34124,-0.10107 -0.61857,-0.261 -0.61627,-0.35534 0.0116,-0.45355 17.10035,-29.19219 20.93227,-35.20122 4.45943,-6.993 14.66988,-22.46253 17.90384,-27.12552 4.27534,-6.16452 12.0263,-16.83472 17.65297,-24.30163 l 4.29633,-5.70141 3.65133,0.1676 c 2.00823,0.092 3.88295,0.22407 4.16604,0.29307 0.45242,0.11021 -0.0276,0.81317 -3.96544,5.80668 -23.71756,30.0757 -42.90277,59.65539 -56.35872,86.89363 -0.8537,1.72807 -1.61352,3.13816 -1.68848,3.13348 -0.075,-0.003 -0.4097,-0.24929 -0.74382,-0.54366 z"
       id="path11993"
       inkscape:connector-curvature="0" />
    <path
       style="opacity:0;fill:#1818d7;fill-opacity:0.95238097;stroke:#000000;stroke-width:0;stroke-miterlimit:4;stroke-dasharray:none;stroke-opacity:1"
       d="m 314.12493,375.61248 c -0.78837,-0.69452 -4.42859,-2.82831 -5.23005,-3.06568 -0.34124,-0.10107 -0.61857,-0.261 -0.61627,-0.35534 0.0116,-0.45355 17.10035,-29.19219 20.93227,-35.20122 4.45943,-6.993 14.66988,-22.46253 17.90384,-27.12552 4.27534,-6.16452 12.0263,-16.83472 17.65297,-24.30163 l 4.29633,-5.70141 3.65133,0.1676 c 2.00823,0.092 3.88295,0.22407 4.16604,0.29307 0.45242,0.11021 -0.0276,0.81317 -3.96544,5.80668 -23.71756,30.0757 -42.90277,59.65539 -56.35872,86.89363 -0.8537,1.72807 -1.61352,3.13816 -1.68848,3.13348 -0.075,-0.003 -0.4097,-0.24929 -0.74382,-0.54366 z"
       id="path11995"
       inkscape:connector-curvature="0" />
    <path
       style="opacity:0;fill:#1818d7;fill-opacity:0.95238097;stroke:#000000;stroke-width:0;stroke-miterlimit:4;stroke-dasharray:none;stroke-opacity:1"
       d="m 314.12493,375.61248 c -0.78837,-0.69452 -4.42859,-2.82831 -5.23005,-3.06568 -0.34124,-0.10107 -0.61857,-0.261 -0.61627,-0.35534 0.0116,-0.45355 17.10035,-29.19219 20.93227,-35.20122 4.45943,-6.993 14.66988,-22.46253 17.90384,-27.12552 4.27534,-6.16452 12.0263,-16.83472 17.65297,-24.30163 l 4.29633,-5.70141 3.65133,0.1676 c 2.00823,0.092 3.88295,0.22407 4.16604,0.29307 0.45242,0.11021 -0.0276,0.81317 -3.96544,5.80668 -23.71756,30.0757 -42.90277,59.65539 -56.35872,86.89363 -0.8537,1.72807 -1.61352,3.13816 -1.68848,3.13348 -0.075,-0.003 -0.4097,-0.24929 -0.74382,-0.54366 z"
       id="path11997"
       inkscape:connector-curvature="0" />
    <path
       style="opacity:0;fill:#1818d7;fill-opacity:0.95238097;stroke:#000000;stroke-width:0;stroke-miterlimit:4;stroke-dasharray:none;stroke-opacity:1"
       d="m 314.12493,375.61248 c -0.78837,-0.69452 -4.42859,-2.82831 -5.23005,-3.06568 -0.34124,-0.10107 -0.61857,-0.261 -0.61627,-0.35534 0.0116,-0.45355 17.10035,-29.19219 20.93227,-35.20122 4.45943,-6.993 14.66988,-22.46253 17.90384,-27.12552 4.27534,-6.16452 12.0263,-16.83472 17.65297,-24.30163 l 4.29633,-5.70141 3.65133,0.1676 c 2.00823,0.092 3.88295,0.22407 4.16604,0.29307 0.45242,0.11021 -0.0276,0.81317 -3.96544,5.80668 -23.71756,30.0757 -42.90277,59.65539 -56.35872,86.89363 -0.8537,1.72807 -1.61352,3.13816 -1.68848,3.13348 -0.075,-0.003 -0.4097,-0.24929 -0.74382,-0.54366 z"
       id="path11999"
       inkscape:connector-curvature="0" />
    <path
       style="opacity:0;fill:#1818d7;fill-opacity:0.95238097;stroke:#000000;stroke-width:0;stroke-miterlimit:4;stroke-dasharray:none;stroke-opacity:1"
       d="m 314.12493,375.61248 c -0.78837,-0.69452 -4.42859,-2.82831 -5.23005,-3.06568 -0.34124,-0.10107 -0.61857,-0.261 -0.61627,-0.35534 0.0116,-0.45355 17.10035,-29.19219 20.93227,-35.20122 4.45943,-6.993 14.66988,-22.46253 17.90384,-27.12552 4.27534,-6.16452 12.0263,-16.83472 17.65297,-24.30163 l 4.29633,-5.70141 3.65133,0.1676 c 2.00823,0.092 3.88295,0.22407 4.16604,0.29307 0.45242,0.11021 -0.0276,0.81317 -3.96544,5.80668 -23.71756,30.0757 -42.90277,59.65539 -56.35872,86.89363 -0.8537,1.72807 -1.61352,3.13816 -1.68848,3.13348 -0.075,-0.003 -0.4097,-0.24929 -0.74382,-0.54366 z"
       id="path12001"
       inkscape:connector-curvature="0" />
    <path
       style="opacity:0;fill:#1818d7;fill-opacity:0.95238097;stroke:#000000;stroke-width:0;stroke-miterlimit:4;stroke-dasharray:none;stroke-opacity:1"
       d="m 314.12493,375.61248 c -0.78837,-0.69452 -4.42859,-2.82831 -5.23005,-3.06568 -0.34124,-0.10107 -0.61857,-0.261 -0.61627,-0.35534 0.0116,-0.45355 17.10035,-29.19219 20.93227,-35.20122 4.45943,-6.993 14.66988,-22.46253 17.90384,-27.12552 4.27534,-6.16452 12.0263,-16.83472 17.65297,-24.30163 l 4.29633,-5.70141 3.65133,0.1676 c 2.00823,0.092 3.88295,0.22407 4.16604,0.29307 0.45242,0.11021 -0.0276,0.81317 -3.96544,5.80668 -23.71756,30.0757 -42.90277,59.65539 -56.35872,86.89363 -0.8537,1.72807 -1.61352,3.13816 -1.68848,3.13348 -0.075,-0.003 -0.4097,-0.24929 -0.74382,-0.54366 z"
       id="path12003"
       inkscape:connector-curvature="0" />
    <path
       style="opacity:0;fill:#1818d7;fill-opacity:0.95238097;stroke:#000000;stroke-width:0;stroke-miterlimit:4;stroke-dasharray:none;stroke-opacity:1"
       d="m 314.12493,375.61248 c -0.78837,-0.69452 -4.42859,-2.82831 -5.23005,-3.06568 -0.34124,-0.10107 -0.61857,-0.261 -0.61627,-0.35534 0.0116,-0.45355 17.10035,-29.19219 20.93227,-35.20122 4.45943,-6.993 14.66988,-22.46253 17.90384,-27.12552 4.27534,-6.16452 12.0263,-16.83472 17.65297,-24.30163 l 4.29633,-5.70141 3.65133,0.1676 c 2.00823,0.092 3.88295,0.22407 4.16604,0.29307 0.45242,0.11021 -0.0276,0.81317 -3.96544,5.80668 -23.71756,30.0757 -42.90277,59.65539 -56.35872,86.89363 -0.8537,1.72807 -1.61352,3.13816 -1.68848,3.13348 -0.075,-0.003 -0.4097,-0.24929 -0.74382,-0.54366 z"
       id="path12005"
       inkscape:connector-curvature="0" />
    <path
       style="opacity:0;fill:#1818d7;fill-opacity:0.95238097;stroke:#000000;stroke-width:0;stroke-miterlimit:4;stroke-dasharray:none;stroke-opacity:1"
       d="m 314.12493,375.61248 c -0.78837,-0.69452 -4.42859,-2.82831 -5.23005,-3.06568 -0.34124,-0.10107 -0.61857,-0.261 -0.61627,-0.35534 0.0116,-0.45355 17.10035,-29.19219 20.93227,-35.20122 4.45943,-6.993 14.66988,-22.46253 17.90384,-27.12552 4.27534,-6.16452 12.0263,-16.83472 17.65297,-24.30163 l 4.29633,-5.70141 3.65133,0.1676 c 2.00823,0.092 3.88295,0.22407 4.16604,0.29307 0.45242,0.11021 -0.0276,0.81317 -3.96544,5.80668 -23.71756,30.0757 -42.90277,59.65539 -56.35872,86.89363 -0.8537,1.72807 -1.61352,3.13816 -1.68848,3.13348 -0.075,-0.003 -0.4097,-0.24929 -0.74382,-0.54366 z"
       id="path12007"
       inkscape:connector-curvature="0" />
    <path
       style="opacity:0;fill:#1818d7;fill-opacity:0.95238097;stroke:#000000;stroke-width:0;stroke-miterlimit:4;stroke-dasharray:none;stroke-opacity:1"
       d="m 314.12493,375.61248 c -0.78837,-0.69452 -4.42859,-2.82831 -5.23005,-3.06568 -0.34124,-0.10107 -0.61857,-0.261 -0.61627,-0.35534 0.0116,-0.45355 17.10035,-29.19219 20.93227,-35.20122 4.45943,-6.993 14.66988,-22.46253 17.90384,-27.12552 4.27534,-6.16452 12.0263,-16.83472 17.65297,-24.30163 l 4.29633,-5.70141 3.65133,0.1676 c 2.00823,0.092 3.88295,0.22407 4.16604,0.29307 0.45242,0.11021 -0.0276,0.81317 -3.96544,5.80668 -23.71756,30.0757 -42.90277,59.65539 -56.35872,86.89363 -0.8537,1.72807 -1.61352,3.13816 -1.68848,3.13348 -0.075,-0.003 -0.4097,-0.24929 -0.74382,-0.54366 z"
       id="path12009"
       inkscape:connector-curvature="0" />
    <path
       style="opacity:0;fill:#1818d7;fill-opacity:0.95238097;stroke:#000000;stroke-width:0;stroke-miterlimit:4;stroke-dasharray:none;stroke-opacity:1"
       d="m 314.12493,375.61248 c -0.78837,-0.69452 -4.42859,-2.82831 -5.23005,-3.06568 -0.34124,-0.10107 -0.61857,-0.261 -0.61627,-0.35534 0.0116,-0.45355 17.10035,-29.19219 20.93227,-35.20122 4.45943,-6.993 14.66988,-22.46253 17.90384,-27.12552 4.27534,-6.16452 12.0263,-16.83472 17.65297,-24.30163 l 4.29633,-5.70141 3.65133,0.1676 c 2.00823,0.092 3.88295,0.22407 4.16604,0.29307 0.45242,0.11021 -0.0276,0.81317 -3.96544,5.80668 -23.71756,30.0757 -42.90277,59.65539 -56.35872,86.89363 -0.8537,1.72807 -1.61352,3.13816 -1.68848,3.13348 -0.075,-0.003 -0.4097,-0.24929 -0.74382,-0.54366 z"
       id="path12011"
       inkscape:connector-curvature="0" />
    <path
       style="display:inline;fill:none;fill-rule:evenodd;stroke:#000000;stroke-width:4.13540602;stroke-linecap:butt;stroke-linejoin:miter;stroke-miterlimit:4;stroke-dasharray:none;stroke-opacity:1"
       d="m 491.74021,173.63557 c 32.75565,-8.91268 62.08539,-25.91106 89.72766,-46.89224"
       id="path11916"
       inkscape:connector-curvature="0"
       sodipodi:nodetypes="cc" />
    <path
       inkscape:connector-curvature="0"
       id="path11918"
       d="m 491.7651,188.48749 c 37.44305,-10.58547 69.94181,-26.17204 94.76345,-49.52401"
       style="display:inline;fill:none;fill-rule:evenodd;stroke:#000000;stroke-width:4.3674984;stroke-linecap:butt;stroke-linejoin:miter;stroke-miterlimit:4;stroke-dasharray:none;stroke-opacity:1"
       sodipodi:nodetypes="cc" />
    <path
       style="opacity:0;fill:#1642f6;fill-opacity:0.95238097;stroke:#000000;stroke-width:0;stroke-miterlimit:4;stroke-dasharray:none;stroke-opacity:1"
       d="m 493.18329,180.60615 0.12996,-4.87516 2.49259,-0.71356 c 24.26818,-6.94748 50.51317,-20.18738 76.36301,-38.52314 3.4896,-2.47523 6.51281,-4.54116 6.7183,-4.59096 0.20547,-0.0498 0.83949,1.35344 1.40896,3.1183 0.56946,1.76483 1.17246,3.58244 1.34002,4.03912 0.22367,0.60962 -0.63264,1.61859 -3.22175,3.79607 -20.19471,16.98415 -46.04055,30.2836 -78.88629,40.59237 l -6.47455,2.03207 0.12983,-4.87511 z"
       id="path12015"
       inkscape:connector-curvature="0" />
    <path
       style="opacity:0;fill:#1642f6;fill-opacity:0.95238097;stroke:#000000;stroke-width:0;stroke-miterlimit:4;stroke-dasharray:none;stroke-opacity:1"
       d="m 493.18329,180.60615 0.12996,-4.87516 2.49259,-0.71356 c 24.26818,-6.94748 50.51317,-20.18738 76.36301,-38.52314 3.4896,-2.47523 6.51281,-4.54116 6.7183,-4.59096 0.20547,-0.0498 0.83949,1.35344 1.40896,3.1183 0.56946,1.76483 1.17246,3.58244 1.34002,4.03912 0.22367,0.60962 -0.63264,1.61859 -3.22175,3.79607 -20.19471,16.98415 -46.04055,30.2836 -78.88629,40.59237 l -6.47455,2.03207 0.12983,-4.87511 z"
       id="path12017"
       inkscape:connector-curvature="0" />
    <path
       style="opacity:0;fill:#1642f6;fill-opacity:0.95238097;stroke:#000000;stroke-width:0;stroke-miterlimit:4;stroke-dasharray:none;stroke-opacity:1"
       d="m 493.18329,180.60615 0.12996,-4.87516 2.49259,-0.71356 c 24.26818,-6.94748 50.51317,-20.18738 76.36301,-38.52314 3.4896,-2.47523 6.51281,-4.54116 6.7183,-4.59096 0.20547,-0.0498 0.83949,1.35344 1.40896,3.1183 0.56946,1.76483 1.17246,3.58244 1.34002,4.03912 0.22367,0.60962 -0.63264,1.61859 -3.22175,3.79607 -20.19471,16.98415 -46.04055,30.2836 -78.88629,40.59237 l -6.47455,2.03207 0.12983,-4.87511 z"
       id="path12019"
       inkscape:connector-curvature="0" />
    <path
       style="fill:none;fill-rule:evenodd;stroke:#000000;stroke-width:1.37846851px;stroke-linecap:butt;stroke-linejoin:miter;stroke-opacity:1"
       d="m 492.63176,172.64778 0.90638,13.90491"
       id="path12050"
       inkscape:connector-curvature="0" />
    <path
       style="opacity:0;fill:#1642f6;fill-opacity:0.95238097;stroke:#000000;stroke-width:0;stroke-miterlimit:4;stroke-dasharray:none;stroke-opacity:1"
       d="m 494.26111,183.85284 c -0.1184,-0.67852 -0.30346,-2.82662 -0.41134,-4.77353 l -0.19612,-3.53987 2.54892,-0.66209 c 9.44944,-2.45455 26.10459,-9.13405 38.33726,-15.37511 12.47393,-6.36411 31.5203,-18.20779 41.86816,-26.03504 l 3.17352,-2.4005 0.48574,2.67268 c 0.26714,1.46998 0.81399,3.42184 1.21522,4.33746 0.85773,1.95736 1.16387,1.57867 -5.71478,7.06825 -19.88441,15.86891 -45.15051,28.66664 -75.00344,37.99057 -2.49257,0.77848 -4.88204,1.53592 -5.30993,1.68316 -0.54336,0.18699 -0.84289,-0.10436 -0.99321,-0.96598 z"
       id="path12052"
       inkscape:connector-curvature="0" />
    <path
       style="opacity:0;fill:#1642f6;fill-opacity:0.95238097;stroke:#000000;stroke-width:0;stroke-miterlimit:4;stroke-dasharray:none;stroke-opacity:1"
       d="m 494.26111,183.85284 c -0.1184,-0.67852 -0.30346,-2.82662 -0.41134,-4.77353 l -0.19612,-3.53987 2.54892,-0.66209 c 9.44944,-2.45455 26.10459,-9.13405 38.33726,-15.37511 12.47393,-6.36411 31.5203,-18.20779 41.86816,-26.03504 l 3.17352,-2.4005 0.48574,2.67268 c 0.26714,1.46998 0.81399,3.42184 1.21522,4.33746 0.85773,1.95736 1.16387,1.57867 -5.71478,7.06825 -19.88441,15.86891 -45.15051,28.66664 -75.00344,37.99057 -2.49257,0.77848 -4.88204,1.53592 -5.30993,1.68316 -0.54336,0.18699 -0.84289,-0.10436 -0.99321,-0.96598 z"
       id="path12054"
       inkscape:connector-curvature="0" />
    <path
       style="opacity:0;fill:#2920dc;fill-opacity:0.95238097;stroke:#000000;stroke-width:0;stroke-miterlimit:4;stroke-dasharray:none;stroke-opacity:1"
       d="m 494.26111,183.85284 c -0.1184,-0.67852 -0.30346,-2.82662 -0.41134,-4.77353 l -0.19612,-3.53987 2.54892,-0.66209 c 9.44944,-2.45455 26.10459,-9.13405 38.33726,-15.37511 12.47393,-6.36411 31.5203,-18.20779 41.86816,-26.03504 l 3.17352,-2.4005 0.48574,2.67268 c 0.26714,1.46998 0.81399,3.42184 1.21522,4.33746 0.85773,1.95736 1.16387,1.57867 -5.71478,7.06825 -19.88441,15.86891 -45.15051,28.66664 -75.00344,37.99057 -2.49257,0.77848 -4.88204,1.53592 -5.30993,1.68316 -0.54336,0.18699 -0.84289,-0.10436 -0.99321,-0.96598 z"
       id="path12056"
       inkscape:connector-curvature="0" />
    <path
       style="opacity:0;fill:#2920dc;fill-opacity:0.95238097;stroke:#000000;stroke-width:0;stroke-miterlimit:4;stroke-dasharray:none;stroke-opacity:1"
       d="m 494.21882,184.51616 c -0.0829,-0.34666 -0.24862,-2.54476 -0.36859,-4.88464 -0.18152,-3.54016 -0.14182,-4.2543 0.23601,-4.2543 1.10033,0 13.21257,-4.06643 19.66372,-6.60167 19.33208,-7.59729 38.4204,-18.1839 58.46389,-32.42475 3.78936,-2.69236 7.00929,-4.92544 7.15533,-4.96242 0.14607,-0.0369 0.53257,1.15003 0.8589,2.63781 0.32632,1.48775 0.89026,3.39191 1.25321,4.23145 l 0.65992,1.52642 -2.64038,2.24329 c -20.88911,17.74741 -47.3559,31.42557 -80.89862,41.80877 -3.79656,1.17524 -4.24843,1.24532 -4.38339,0.68004 z"
       id="path12058"
       inkscape:connector-curvature="0" />
    <path
       style="opacity:0;fill:#2920dc;fill-opacity:0.95238097;stroke:#000000;stroke-width:0;stroke-miterlimit:4;stroke-dasharray:none;stroke-opacity:1"
       d="m 494.21882,184.51616 c -0.0829,-0.34666 -0.24862,-2.54476 -0.36859,-4.88464 -0.18152,-3.54016 -0.14182,-4.2543 0.23601,-4.2543 1.10033,0 13.21257,-4.06643 19.66372,-6.60167 19.33208,-7.59729 38.4204,-18.1839 58.46389,-32.42475 3.78936,-2.69236 7.00929,-4.92544 7.15533,-4.96242 0.14607,-0.0369 0.53257,1.15003 0.8589,2.63781 0.32632,1.48775 0.89026,3.39191 1.25321,4.23145 l 0.65992,1.52642 -2.64038,2.24329 c -20.88911,17.74741 -47.3559,31.42557 -80.89862,41.80877 -3.79656,1.17524 -4.24843,1.24532 -4.38339,0.68004 z"
       id="path12060"
       inkscape:connector-curvature="0" />
    <path
       style="opacity:0;fill:#2920dc;fill-opacity:0.95238097;stroke:#000000;stroke-width:0;stroke-miterlimit:4;stroke-dasharray:none;stroke-opacity:1"
       d="m 494.21882,184.51616 c -0.0829,-0.34666 -0.24862,-2.54476 -0.36859,-4.88464 -0.18152,-3.54016 -0.14182,-4.2543 0.23601,-4.2543 1.10033,0 13.21257,-4.06643 19.66372,-6.60167 19.33208,-7.59729 38.4204,-18.1839 58.46389,-32.42475 3.78936,-2.69236 7.00929,-4.92544 7.15533,-4.96242 0.14607,-0.0369 0.53257,1.15003 0.8589,2.63781 0.32632,1.48775 0.89026,3.39191 1.25321,4.23145 l 0.65992,1.52642 -2.64038,2.24329 c -20.88911,17.74741 -47.3559,31.42557 -80.89862,41.80877 -3.79656,1.17524 -4.24843,1.24532 -4.38339,0.68004 z"
       id="path12062"
       inkscape:connector-curvature="0" />
    <path
       style="opacity:0;fill:#f64100;fill-opacity:1;stroke:#000000;stroke-width:0;stroke-miterlimit:4;stroke-dasharray:none;stroke-opacity:1"
       d="m 460.54698,370.82369 c -9.04534,-17.54956 -29.63809,-49.7453 -47.85068,-74.81216 -5.46955,-7.52803 -9.94464,-13.90178 -9.94464,-14.16386 0,-0.2621 1.5893,-0.47657 3.53182,-0.47657 3.30777,0 4.2117,0.93239 14.24986,14.69838 13.84173,18.98209 25.655,36.9973 38.99002,59.45974 l 10.70789,18.03707 -2.57057,1.98237 c -1.4138,1.09031 -2.81031,1.99131 -3.10337,2.00221 -0.29304,0.0113 -2.09767,-3.01635 -4.01033,-6.72718 z"
       id="path12128"
       inkscape:connector-curvature="0" />
    <path
       style="opacity:0;fill:#f64100;fill-opacity:1;stroke:#000000;stroke-width:0;stroke-miterlimit:4;stroke-dasharray:none;stroke-opacity:1"
       d="m 460.54698,370.82369 c -9.04534,-17.54956 -29.63809,-49.7453 -47.85068,-74.81216 -5.46955,-7.52803 -9.94464,-13.90178 -9.94464,-14.16386 0,-0.2621 1.5893,-0.47657 3.53182,-0.47657 3.30777,0 4.2117,0.93239 14.24986,14.69838 13.84173,18.98209 25.655,36.9973 38.99002,59.45974 l 10.70789,18.03707 -2.57057,1.98237 c -1.4138,1.09031 -2.81031,1.99131 -3.10337,2.00221 -0.29304,0.0113 -2.09767,-3.01635 -4.01033,-6.72718 z"
       id="path12130"
       inkscape:connector-curvature="0" />
    <path
       style="opacity:0;fill:#f64100;fill-opacity:1;stroke:#000000;stroke-width:0;stroke-miterlimit:4;stroke-dasharray:none;stroke-opacity:1"
       d="m 460.54698,370.82369 c -9.04534,-17.54956 -29.63809,-49.7453 -47.85068,-74.81216 -5.46955,-7.52803 -9.94464,-13.90178 -9.94464,-14.16386 0,-0.2621 1.5893,-0.47657 3.53182,-0.47657 3.30777,0 4.2117,0.93239 14.24986,14.69838 13.84173,18.98209 25.655,36.9973 38.99002,59.45974 l 10.70789,18.03707 -2.57057,1.98237 c -1.4138,1.09031 -2.81031,1.99131 -3.10337,2.00221 -0.29304,0.0113 -2.09767,-3.01635 -4.01033,-6.72718 z"
       id="path12132"
       inkscape:connector-curvature="0" />
    <path
       style="opacity:0;fill:#f64100;fill-opacity:1;stroke:#000000;stroke-width:0;stroke-miterlimit:4;stroke-dasharray:none;stroke-opacity:1"
       d="m 460.54698,370.82369 c -9.04534,-17.54956 -29.63809,-49.7453 -47.85068,-74.81216 -5.46955,-7.52803 -9.94464,-13.90178 -9.94464,-14.16386 0,-0.2621 1.5893,-0.47657 3.53182,-0.47657 3.30777,0 4.2117,0.93239 14.24986,14.69838 13.84173,18.98209 25.655,36.9973 38.99002,59.45974 l 10.70789,18.03707 -2.57057,1.98237 c -1.4138,1.09031 -2.81031,1.99131 -3.10337,2.00221 -0.29304,0.0113 -2.09767,-3.01635 -4.01033,-6.72718 z"
       id="path12134"
       inkscape:connector-curvature="0" />
    <path
       style="opacity:0;fill:#f64100;fill-opacity:1;stroke:#000000;stroke-width:0;stroke-miterlimit:4;stroke-dasharray:none;stroke-opacity:1"
       d="m 460.54698,370.82369 c -9.04534,-17.54956 -29.63809,-49.7453 -47.85068,-74.81216 -5.46955,-7.52803 -9.94464,-13.90178 -9.94464,-14.16386 0,-0.2621 1.5893,-0.47657 3.53182,-0.47657 3.30777,0 4.2117,0.93239 14.24986,14.69838 13.84173,18.98209 25.655,36.9973 38.99002,59.45974 l 10.70789,18.03707 -2.57057,1.98237 c -1.4138,1.09031 -2.81031,1.99131 -3.10337,2.00221 -0.29304,0.0113 -2.09767,-3.01635 -4.01033,-6.72718 z"
       id="path12136"
       inkscape:connector-curvature="0" />
    <path
       style="opacity:0;fill:#f64100;fill-opacity:1;stroke:#000000;stroke-width:0;stroke-miterlimit:4;stroke-dasharray:none;stroke-opacity:1"
       d="m 460.54698,370.82369 c -9.04534,-17.54956 -29.63809,-49.7453 -47.85068,-74.81216 -5.46955,-7.52803 -9.94464,-13.90178 -9.94464,-14.16386 0,-0.2621 1.5893,-0.47657 3.53182,-0.47657 3.30777,0 4.2117,0.93239 14.24986,14.69838 13.84173,18.98209 25.655,36.9973 38.99002,59.45974 l 10.70789,18.03707 -2.57057,1.98237 c -1.4138,1.09031 -2.81031,1.99131 -3.10337,2.00221 -0.29304,0.0113 -2.09767,-3.01635 -4.01033,-6.72718 z"
       id="path12138"
       inkscape:connector-curvature="0" />
    <path
       style="opacity:0;fill:#f64100;fill-opacity:1;stroke:#000000;stroke-width:0;stroke-miterlimit:4;stroke-dasharray:none;stroke-opacity:1"
       d="m 460.54698,370.82369 c -9.04534,-17.54956 -29.63809,-49.7453 -47.85068,-74.81216 -5.46955,-7.52803 -9.94464,-13.90178 -9.94464,-14.16386 0,-0.2621 1.5893,-0.47657 3.53182,-0.47657 3.30777,0 4.2117,0.93239 14.24986,14.69838 13.84173,18.98209 25.655,36.9973 38.99002,59.45974 l 10.70789,18.03707 -2.57057,1.98237 c -1.4138,1.09031 -2.81031,1.99131 -3.10337,2.00221 -0.29304,0.0113 -2.09767,-3.01635 -4.01033,-6.72718 z"
       id="path12140"
       inkscape:connector-curvature="0" />
    <path
       style="opacity:0;fill:#f64100;fill-opacity:1;stroke:#000000;stroke-width:0;stroke-miterlimit:4;stroke-dasharray:none;stroke-opacity:1"
       d="m 460.54698,370.82369 c -9.04534,-17.54956 -29.63809,-49.7453 -47.85068,-74.81216 -5.46955,-7.52803 -9.94464,-13.90178 -9.94464,-14.16386 0,-0.2621 1.5893,-0.47657 3.53182,-0.47657 3.30777,0 4.2117,0.93239 14.24986,14.69838 13.84173,18.98209 25.655,36.9973 38.99002,59.45974 l 10.70789,18.03707 -2.57057,1.98237 c -1.4138,1.09031 -2.81031,1.99131 -3.10337,2.00221 -0.29304,0.0113 -2.09767,-3.01635 -4.01033,-6.72718 z"
       id="path12142"
       inkscape:connector-curvature="0" />
    <path
       style="opacity:0;fill:#f64100;fill-opacity:1;stroke:#000000;stroke-width:0;stroke-miterlimit:4;stroke-dasharray:none;stroke-opacity:1"
       d="m 460.54698,370.82369 c -9.04534,-17.54956 -29.63809,-49.7453 -47.85068,-74.81216 -5.46955,-7.52803 -9.94464,-13.90178 -9.94464,-14.16386 0,-0.2621 1.5893,-0.47657 3.53182,-0.47657 3.30777,0 4.2117,0.93239 14.24986,14.69838 13.84173,18.98209 25.655,36.9973 38.99002,59.45974 l 10.70789,18.03707 -2.57057,1.98237 c -1.4138,1.09031 -2.81031,1.99131 -3.10337,2.00221 -0.29304,0.0113 -2.09767,-3.01635 -4.01033,-6.72718 z"
       id="path12144"
       inkscape:connector-curvature="0" />
    <path
       style="opacity:0;fill:#f64100;fill-opacity:1;stroke:#000000;stroke-width:0;stroke-miterlimit:4;stroke-dasharray:none;stroke-opacity:1"
       d="m 460.54698,370.82369 c -9.04534,-17.54956 -29.63809,-49.7453 -47.85068,-74.81216 -5.46955,-7.52803 -9.94464,-13.90178 -9.94464,-14.16386 0,-0.2621 1.5893,-0.47657 3.53182,-0.47657 3.30777,0 4.2117,0.93239 14.24986,14.69838 13.84173,18.98209 25.655,36.9973 38.99002,59.45974 l 10.70789,18.03707 -2.57057,1.98237 c -1.4138,1.09031 -2.81031,1.99131 -3.10337,2.00221 -0.29304,0.0113 -2.09767,-3.01635 -4.01033,-6.72718 z"
       id="path12146"
       inkscape:connector-curvature="0" />
    <path
       style="opacity:0;fill:#f64100;fill-opacity:1;stroke:#000000;stroke-width:0;stroke-miterlimit:4;stroke-dasharray:none;stroke-opacity:1"
       d="m 460.54698,370.82369 c -9.04534,-17.54956 -29.63809,-49.7453 -47.85068,-74.81216 -5.46955,-7.52803 -9.94464,-13.90178 -9.94464,-14.16386 0,-0.2621 1.5893,-0.47657 3.53182,-0.47657 3.30777,0 4.2117,0.93239 14.24986,14.69838 13.84173,18.98209 25.655,36.9973 38.99002,59.45974 l 10.70789,18.03707 -2.57057,1.98237 c -1.4138,1.09031 -2.81031,1.99131 -3.10337,2.00221 -0.29304,0.0113 -2.09767,-3.01635 -4.01033,-6.72718 z"
       id="path12148"
       inkscape:connector-curvature="0" />
    <path
       style="opacity:0;fill:#f64100;fill-opacity:1;stroke:#000000;stroke-width:0;stroke-miterlimit:4;stroke-dasharray:none;stroke-opacity:1"
       d="m 462.83865,375.31648 c -2.31741,-4.87499 -13.36241,-23.90378 -20.99988,-36.17955 -8.39038,-13.4859 -20.5272,-31.27645 -31.45554,-46.10852 -3.98208,-5.40451 -7.49966,-10.25159 -7.81686,-10.77126 -0.43406,-0.71118 0.41267,-0.93718 3.42368,-0.91379 l 4.00036,0.031 3.74331,5.07111 c 19.22814,26.04868 30.22951,42.56801 45.89744,68.91814 9.667,16.25788 10.83858,18.57987 9.68794,19.20119 -0.7199,0.38873 -2.18627,1.31898 -3.25861,2.06726 l -1.94968,1.36048 -1.27216,-2.67611 z"
       id="path12150"
       inkscape:connector-curvature="0" />
    <path
       style="opacity:0;fill:#f64100;fill-opacity:1;stroke:#000000;stroke-width:0;stroke-miterlimit:4;stroke-dasharray:none;stroke-opacity:1"
       d="m 462.83865,375.31648 c -2.31741,-4.87499 -13.36241,-23.90378 -20.99988,-36.17955 -8.39038,-13.4859 -20.5272,-31.27645 -31.45554,-46.10852 -3.98208,-5.40451 -7.49966,-10.25159 -7.81686,-10.77126 -0.43406,-0.71118 0.41267,-0.93718 3.42368,-0.91379 l 4.00036,0.031 3.74331,5.07111 c 19.22814,26.04868 30.22951,42.56801 45.89744,68.91814 9.667,16.25788 10.83858,18.57987 9.68794,19.20119 -0.7199,0.38873 -2.18627,1.31898 -3.25861,2.06726 l -1.94968,1.36048 -1.27216,-2.67611 z"
       id="path12152"
       inkscape:connector-curvature="0" />
    <path
       style="opacity:0;fill:#f64100;fill-opacity:1;stroke:#000000;stroke-width:0;stroke-miterlimit:4;stroke-dasharray:none;stroke-opacity:1"
       d="m 462.83865,375.31648 c -2.31741,-4.87499 -13.36241,-23.90378 -20.99988,-36.17955 -8.39038,-13.4859 -20.5272,-31.27645 -31.45554,-46.10852 -3.98208,-5.40451 -7.49966,-10.25159 -7.81686,-10.77126 -0.43406,-0.71118 0.41267,-0.93718 3.42368,-0.91379 l 4.00036,0.031 3.74331,5.07111 c 19.22814,26.04868 30.22951,42.56801 45.89744,68.91814 9.667,16.25788 10.83858,18.57987 9.68794,19.20119 -0.7199,0.38873 -2.18627,1.31898 -3.25861,2.06726 l -1.94968,1.36048 -1.27216,-2.67611 z"
       id="path12154"
       inkscape:connector-curvature="0" />
    <path
       style="opacity:0;fill:#f64100;fill-opacity:1;stroke:#000000;stroke-width:0;stroke-miterlimit:4;stroke-dasharray:none;stroke-opacity:1"
       d="m 462.83865,375.31648 c -2.31741,-4.87499 -13.36241,-23.90378 -20.99988,-36.17955 -8.39038,-13.4859 -20.5272,-31.27645 -31.45554,-46.10852 -3.98208,-5.40451 -7.49966,-10.25159 -7.81686,-10.77126 -0.43406,-0.71118 0.41267,-0.93718 3.42368,-0.91379 l 4.00036,0.031 3.74331,5.07111 c 19.22814,26.04868 30.22951,42.56801 45.89744,68.91814 9.667,16.25788 10.83858,18.57987 9.68794,19.20119 -0.7199,0.38873 -2.18627,1.31898 -3.25861,2.06726 l -1.94968,1.36048 -1.27216,-2.67611 z"
       id="path12156"
       inkscape:connector-curvature="0" />
    <path
       style="opacity:0;fill:#f64100;fill-opacity:1;stroke:#000000;stroke-width:0;stroke-miterlimit:4;stroke-dasharray:none;stroke-opacity:1"
       d="m 462.83865,375.31648 c -2.31741,-4.87499 -13.36241,-23.90378 -20.99988,-36.17955 -8.39038,-13.4859 -20.5272,-31.27645 -31.45554,-46.10852 -3.98208,-5.40451 -7.49966,-10.25159 -7.81686,-10.77126 -0.43406,-0.71118 0.41267,-0.93718 3.42368,-0.91379 l 4.00036,0.031 3.74331,5.07111 c 19.22814,26.04868 30.22951,42.56801 45.89744,68.91814 9.667,16.25788 10.83858,18.57987 9.68794,19.20119 -0.7199,0.38873 -2.18627,1.31898 -3.25861,2.06726 l -1.94968,1.36048 -1.27216,-2.67611 z"
       id="path12158"
       inkscape:connector-curvature="0" />
    <path
       style="opacity:0;fill:#f64100;fill-opacity:1;stroke:#000000;stroke-width:0;stroke-miterlimit:4;stroke-dasharray:none;stroke-opacity:1"
       d="m 462.83865,375.31648 c -2.31741,-4.87499 -13.36241,-23.90378 -20.99988,-36.17955 -8.39038,-13.4859 -20.5272,-31.27645 -31.45554,-46.10852 -3.98208,-5.40451 -7.49966,-10.25159 -7.81686,-10.77126 -0.43406,-0.71118 0.41267,-0.93718 3.42368,-0.91379 l 4.00036,0.031 3.74331,5.07111 c 19.22814,26.04868 30.22951,42.56801 45.89744,68.91814 9.667,16.25788 10.83858,18.57987 9.68794,19.20119 -0.7199,0.38873 -2.18627,1.31898 -3.25861,2.06726 l -1.94968,1.36048 -1.27216,-2.67611 z"
       id="path12160"
       inkscape:connector-curvature="0" />
    <path
       style="opacity:0;fill:#f64100;fill-opacity:1;stroke:#000000;stroke-width:0;stroke-miterlimit:4;stroke-dasharray:none;stroke-opacity:1"
       d="m 462.83865,375.31648 c -2.31741,-4.87499 -13.36241,-23.90378 -20.99988,-36.17955 -8.39038,-13.4859 -20.5272,-31.27645 -31.45554,-46.10852 -3.98208,-5.40451 -7.49966,-10.25159 -7.81686,-10.77126 -0.43406,-0.71118 0.41267,-0.93718 3.42368,-0.91379 l 4.00036,0.031 3.74331,5.07111 c 19.22814,26.04868 30.22951,42.56801 45.89744,68.91814 9.667,16.25788 10.83858,18.57987 9.68794,19.20119 -0.7199,0.38873 -2.18627,1.31898 -3.25861,2.06726 l -1.94968,1.36048 -1.27216,-2.67611 z"
       id="path12162"
       inkscape:connector-curvature="0" />
    <path
       style="opacity:0;fill:#f64100;fill-opacity:1;stroke:#000000;stroke-width:0;stroke-miterlimit:4;stroke-dasharray:none;stroke-opacity:1"
       d="m 286.45398,405.27348 c -8.88423,-1.40425 -17.35675,-5.90151 -20.3301,-10.7914 -3.54397,-5.82821 -2.56291,-10.84556 3.12349,-15.97424 6.44612,-5.81386 15.95984,-8.45475 27.91229,-7.74807 l 7.2777,0.43028 6.26393,-10.73541 c 15.37287,-26.34677 27.64062,-45.26602 42.87844,-66.12707 4.33677,-5.93717 8.35027,-11.46453 8.91885,-12.28301 1.02475,-1.47513 0.64776,-1.48811 -43.13809,-1.48811 l -44.17186,0 0,-45.20133 0,-45.20131 -8.10015,-2.48291 c -30.63325,-9.38996 -58.20772,-23.40321 -78.15528,-39.7183 l -6.00729,-4.91336 -1.59546,1.50356 c -3.4777,3.27743 -9.1751,3.24603 -13.38227,-0.0737 -2.57039,-2.02823 -5.61177,-8.51941 -6.2122,-13.25864 -1.35219,-10.67268 5.06626,-21.48223 12.75562,-21.48223 5.75443,0 10.81454,4.89088 12.54452,12.12497 1.03713,4.33681 2.75317,5.85717 18.45344,16.34926 21.26417,14.21026 39.29792,23.34904 59.52679,30.1658 l 9.79554,3.30091 0.19313,-56.67029 0.19316,-56.670307 25.23761,0 c 19.68741,0 25.23771,-0.207786 25.23818,-0.944846 7.6e-4,-1.745392 4.59024,-10.698007 7.39415,-14.424709 6.26488,-8.326719 19.47495,-16.348998 32.16419,-19.532873 9.64185,-2.419252 25.15205,-2.412385 34.2844,0.01518 8.62755,2.293374 18.89355,7.421812 24.95714,12.467451 5.68411,4.729876 11.93543,13.514608 13.43143,18.874649 l 0.98948,3.545151 27.02819,0 27.0282,0 0,56.617334 0,56.61733 5.08614,-1.52324 c 21.55533,-6.45551 49.40678,-20.81577 72.35896,-37.30841 8.55356,-6.14627 9.59823,-7.14367 10.1198,-9.66199 2.20634,-10.65259 11.0067,-16.33988 17.9846,-11.62264 5.47025,3.698 7.83527,9.74725 7.30704,18.68995 -0.80607,13.64638 -10.79247,21.09357 -19.36451,14.44074 l -1.82619,-1.4173 -5.84563,4.85146 c -18.34359,15.22384 -48.02418,30.44118 -76.58981,39.26784 l -9.2304,2.85218 0,45.21233 0,45.21236 -39.27162,0 -39.27162,0 2.00463,2.63647 c 15.1607,19.93931 32.01996,45.17464 46.70488,69.90899 6.04101,10.17513 11.07126,18.76383 11.17831,19.08597 0.10722,0.32213 2.56816,0.0814 5.46912,-0.53503 7.28984,-1.54898 14.88776,-1.42191 21.85451,0.36551 25.87205,6.63778 23.35386,28.28444 -3.83886,32.99902 -14.41135,2.49861 -29.78241,-2.12752 -35.26814,-10.61441 -2.05184,-3.17439 -2.53564,-7.16725 -1.27232,-10.50053 0.58085,-1.53257 -0.26203,-3.53604 -5.34752,-12.71016 -13.94167,-25.15052 -31.14465,-51.7903 -49.60705,-76.8193 l -10.15951,-13.77297 -6.96334,-0.0217 -6.96336,-0.0217 -7.04074,8.88156 c -21.68318,27.35223 -41.6897,57.98443 -54.25838,83.07566 -2.39816,4.78746 -2.57636,5.52021 -1.55037,6.3744 1.81576,1.51169 4.0631,6.44744 4.0631,8.92362 0,7.0622 -7.56978,13.99095 -18.08408,16.55272 -5.01913,1.22285 -14.11723,1.66108 -18.87481,0.90909 l 0,-4e-5 z m 15.53403,-5.35892 c 13.51404,-2.4978 20.22515,-10.86614 13.70142,-17.08492 -5.49896,-5.24197 -13.14152,-7.39551 -24.36661,-6.86608 -9.07177,0.42788 -15.20399,2.54103 -19.33657,6.66333 -5.02117,5.00875 -3.23102,10.28499 4.841,14.26802 7.50774,3.70461 15.96392,4.71947 25.16076,3.01965 z m 196.32319,0.0775 c 2.23232,-0.41184 6.22199,-1.85747 8.86596,-3.21246 10.79458,-5.53209 9.58711,-13.86926 -2.72887,-18.84174 -3.81342,-1.53965 -5.57072,-1.74716 -14.51115,-1.71356 -10.96251,0.0412 -14.30086,0.81657 -19.724,4.58111 -3.24369,2.25164 -5.45632,6.37541 -4.72482,8.80588 2.39434,7.95523 18.44901,13.0328 32.82288,10.38077 z m -30.38966,-23.43921 c 2.19876,-1.28764 3.12619,-2.29302 2.91101,-3.15564 -0.17368,-0.69626 -5.34014,-9.71011 -11.48102,-20.03075 -14.84037,-24.94141 -25.55724,-40.95881 -46.29346,-69.1901 l -2.61554,-3.56095 -5.14902,-0.0295 -5.149,-0.0295 1.38149,1.81771 c 21.43154,28.19913 43.4035,61.68167 57.95954,88.32312 2.44254,4.47049 4.61383,8.04201 4.82509,7.9367 0.21127,-0.10513 1.83618,-1.04178 3.61091,-2.08112 z m -149.40647,-6.58757 c 12.99448,-25.07207 29.37665,-50.45073 49.3545,-76.45819 3.93706,-5.12532 7.77995,-10.13593 8.53976,-11.13471 l 1.38147,-1.81596 -4.93306,0 -4.93311,0 -5.55101,7.36979 c -14.89374,19.77367 -28.08065,39.63745 -43.98116,66.25012 l -10.79225,18.06292 3.57368,1.71925 c 1.96554,0.94557 3.74322,1.74239 3.95044,1.7707 0.2072,0.0284 1.73306,-2.56545 3.39074,-5.76392 z m 170.48277,-200.71179 0.19097,-107.145618 -24.49145,0 -24.49145,0 0,3.676215 c 0,9.999074 -4.00455,19.746232 -11.34793,27.621045 -10.07267,10.801638 -22.59895,16.663868 -39.70192,18.580298 -12.90532,1.44606 -25.23272,-0.80354 -37.76605,-6.89188 -6.60915,-3.21053 -8.76985,-4.74872 -14.01038,-9.973985 -4.52495,-4.511771 -6.91841,-7.641862 -8.87422,-11.605424 -2.87339,-5.823072 -4.78032,-14.606154 -4.0933,-18.853178 l 0.41303,-2.553091 -22.9345,0 -22.93449,0 0,106.830668 c 0,58.75686 0.22724,107.05862 0.50499,107.33721 0.27771,0.27862 47.49414,0.42035 104.92535,0.31495 l 104.4204,-0.19161 0.19095,-107.1456 z m -213.82053,11.33815 -0.0116,-5.4801 -6.95857,-2.13643 c -22.41377,-6.88153 -48.2984,-20.13094 -71.06162,-36.37391 l -8.95601,-6.39067 -1.30754,4.68738 c -0.71913,2.57807 -1.31942,4.91235 -1.33399,5.18734 -0.0461,0.87066 12.86285,10.82938 20.70197,15.97068 9.11139,5.97576 21.93838,12.79802 33.14705,17.62989 8.191,3.53102 33.02631,12.34872 34.84956,12.37326 0.66907,0.009 0.93859,-1.57454 0.93053,-5.46744 z m 235.07422,0.0958 c 27.12975,-9.29243 51.19011,-22.52542 70.24644,-38.635 l 2.02418,-1.71117 -1.52818,-4.53526 c -0.84045,-2.49441 -1.63755,-4.64789 -1.77129,-4.78552 -0.13367,-0.13758 -4.08677,2.46249 -8.78455,5.77808 -22.89344,16.15765 -43.31968,26.81714 -66.93793,34.93171 -7.74906,2.66234 -10.15734,3.79649 -10.1095,4.7609 0.0344,0.69631 0.11941,3.11846 0.18836,5.38259 l 0.12559,4.1166 3.95589,-1.17262 c 2.17576,-0.64496 7.84169,-2.50358 12.591,-4.13031 z M 179.03635,142.15943 c 4.74086,-3.74091 6.80614,-12.46399 4.6844,-19.78548 -3.20576,-11.06217 -11.90143,-12.87018 -16.58205,-3.4478 -3.47893,7.00329 -2.44621,17.29928 2.23454,22.27795 2.87677,3.0599 6.53736,3.42181 9.66311,0.95533 z m 418.99418,-0.75557 c 6.35813,-5.60009 6.57893,-19.21573 0.41699,-25.71369 -3.79431,-4.00122 -6.63831,-4.02182 -10.57118,-0.0766 -3.51883,3.52992 -4.796,7.86056 -4.31765,14.64034 0.79164,11.22022 8.04618,16.8095 14.47184,11.14991 z M 398.76321,105.87419 c 23.72057,-5.969563 39.32046,-24.663433 36.39628,-43.614828 -2.39092,-15.495289 -15.11484,-27.968482 -34.54057,-33.859927 -6.03876,-1.83144 -7.94961,-2.049386 -18.05603,-2.059414 -9.22758,-0.0093 -12.40922,0.287617 -17.33058,1.61656 -23.69742,6.399135 -39.01276,25.095437 -35.91573,43.844372 4.22914,25.60231 37.75152,42.049707 69.44663,34.073237 z"
       id="path12164"
       inkscape:connector-curvature="0" />
    <path
       style="opacity:0;fill:#f64100;fill-opacity:1;stroke:#000000;stroke-width:0;stroke-miterlimit:4;stroke-dasharray:none;stroke-opacity:1"
       d="m 286.45398,405.27348 c -8.88423,-1.40425 -17.35675,-5.90151 -20.3301,-10.7914 -3.54397,-5.82821 -2.56291,-10.84556 3.12349,-15.97424 6.44612,-5.81386 15.95984,-8.45475 27.91229,-7.74807 l 7.2777,0.43028 6.26393,-10.73541 c 15.37287,-26.34677 27.64062,-45.26602 42.87844,-66.12707 4.33677,-5.93717 8.35027,-11.46453 8.91885,-12.28301 1.02475,-1.47513 0.64776,-1.48811 -43.13809,-1.48811 l -44.17186,0 0,-45.20133 0,-45.20131 -8.10015,-2.48291 c -30.63325,-9.38996 -58.20772,-23.40321 -78.15528,-39.7183 l -6.00729,-4.91336 -1.59546,1.50356 c -3.4777,3.27743 -9.1751,3.24603 -13.38227,-0.0737 -2.57039,-2.02823 -5.61177,-8.51941 -6.2122,-13.25864 -1.35219,-10.67268 5.06626,-21.48223 12.75562,-21.48223 5.75443,0 10.81454,4.89088 12.54452,12.12497 1.03713,4.33681 2.75317,5.85717 18.45344,16.34926 21.26417,14.21026 39.29792,23.34904 59.52679,30.1658 l 9.79554,3.30091 0.19313,-56.67029 0.19316,-56.670307 25.23761,0 c 19.68741,0 25.23771,-0.207786 25.23818,-0.944846 7.6e-4,-1.745392 4.59024,-10.698007 7.39415,-14.424709 6.26488,-8.326719 19.47495,-16.348998 32.16419,-19.532873 9.64185,-2.419252 25.15205,-2.412385 34.2844,0.01518 8.62755,2.293374 18.89355,7.421812 24.95714,12.467451 5.68411,4.729876 11.93543,13.514608 13.43143,18.874649 l 0.98948,3.545151 27.02819,0 27.0282,0 0,56.617334 0,56.61733 5.08614,-1.52324 c 21.55533,-6.45551 49.40678,-20.81577 72.35896,-37.30841 8.55356,-6.14627 9.59823,-7.14367 10.1198,-9.66199 2.20634,-10.65259 11.0067,-16.33988 17.9846,-11.62264 5.47025,3.698 7.83527,9.74725 7.30704,18.68995 -0.80607,13.64638 -10.79247,21.09357 -19.36451,14.44074 l -1.82619,-1.4173 -5.84563,4.85146 c -18.34359,15.22384 -48.02418,30.44118 -76.58981,39.26784 l -9.2304,2.85218 0,45.21233 0,45.21236 -39.27162,0 -39.27162,0 2.00463,2.63647 c 15.1607,19.93931 32.01996,45.17464 46.70488,69.90899 6.04101,10.17513 11.07126,18.76383 11.17831,19.08597 0.10722,0.32213 2.56816,0.0814 5.46912,-0.53503 7.28984,-1.54898 14.88776,-1.42191 21.85451,0.36551 25.87205,6.63778 23.35386,28.28444 -3.83886,32.99902 -14.41135,2.49861 -29.78241,-2.12752 -35.26814,-10.61441 -2.05184,-3.17439 -2.53564,-7.16725 -1.27232,-10.50053 0.58085,-1.53257 -0.26203,-3.53604 -5.34752,-12.71016 -13.94167,-25.15052 -31.14465,-51.7903 -49.60705,-76.8193 l -10.15951,-13.77297 -6.96334,-0.0217 -6.96336,-0.0217 -7.04074,8.88156 c -21.68318,27.35223 -41.6897,57.98443 -54.25838,83.07566 -2.39816,4.78746 -2.57636,5.52021 -1.55037,6.3744 1.81576,1.51169 4.0631,6.44744 4.0631,8.92362 0,7.0622 -7.56978,13.99095 -18.08408,16.55272 -5.01913,1.22285 -14.11723,1.66108 -18.87481,0.90909 l 0,-4e-5 z m 15.53403,-5.35892 c 13.51404,-2.4978 20.22515,-10.86614 13.70142,-17.08492 -5.49896,-5.24197 -13.14152,-7.39551 -24.36661,-6.86608 -9.07177,0.42788 -15.20399,2.54103 -19.33657,6.66333 -5.02117,5.00875 -3.23102,10.28499 4.841,14.26802 7.50774,3.70461 15.96392,4.71947 25.16076,3.01965 z m 196.32319,0.0775 c 2.23232,-0.41184 6.22199,-1.85747 8.86596,-3.21246 10.79458,-5.53209 9.58711,-13.86926 -2.72887,-18.84174 -3.81342,-1.53965 -5.57072,-1.74716 -14.51115,-1.71356 -10.96251,0.0412 -14.30086,0.81657 -19.724,4.58111 -3.24369,2.25164 -5.45632,6.37541 -4.72482,8.80588 2.39434,7.95523 18.44901,13.0328 32.82288,10.38077 z m -30.38966,-23.43921 c 2.19876,-1.28764 3.12619,-2.29302 2.91101,-3.15564 -0.17368,-0.69626 -5.34014,-9.71011 -11.48102,-20.03075 -14.84037,-24.94141 -25.55724,-40.95881 -46.29346,-69.1901 l -2.61554,-3.56095 -5.14902,-0.0295 -5.149,-0.0295 1.38149,1.81771 c 21.43154,28.19913 43.4035,61.68167 57.95954,88.32312 2.44254,4.47049 4.61383,8.04201 4.82509,7.9367 0.21127,-0.10513 1.83618,-1.04178 3.61091,-2.08112 z m -149.40647,-6.58757 c 12.99448,-25.07207 29.37665,-50.45073 49.3545,-76.45819 3.93706,-5.12532 7.77995,-10.13593 8.53976,-11.13471 l 1.38147,-1.81596 -4.93306,0 -4.93311,0 -5.55101,7.36979 c -14.89374,19.77367 -28.08065,39.63745 -43.98116,66.25012 l -10.79225,18.06292 3.57368,1.71925 c 1.96554,0.94557 3.74322,1.74239 3.95044,1.7707 0.2072,0.0284 1.73306,-2.56545 3.39074,-5.76392 z m 170.48277,-200.71179 0.19097,-107.145618 -24.49145,0 -24.49145,0 0,3.676215 c 0,9.999074 -4.00455,19.746232 -11.34793,27.621045 -10.07267,10.801638 -22.59895,16.663868 -39.70192,18.580298 -12.90532,1.44606 -25.23272,-0.80354 -37.76605,-6.89188 -6.60915,-3.21053 -8.76985,-4.74872 -14.01038,-9.973985 -4.52495,-4.511771 -6.91841,-7.641862 -8.87422,-11.605424 -2.87339,-5.823072 -4.78032,-14.606154 -4.0933,-18.853178 l 0.41303,-2.553091 -22.9345,0 -22.93449,0 0,106.830668 c 0,58.75686 0.22724,107.05862 0.50499,107.33721 0.27771,0.27862 47.49414,0.42035 104.92535,0.31495 l 104.4204,-0.19161 0.19095,-107.1456 z m -213.82053,11.33815 -0.0116,-5.4801 -6.95857,-2.13643 c -22.41377,-6.88153 -48.2984,-20.13094 -71.06162,-36.37391 l -8.95601,-6.39067 -1.30754,4.68738 c -0.71913,2.57807 -1.31942,4.91235 -1.33399,5.18734 -0.0461,0.87066 12.86285,10.82938 20.70197,15.97068 9.11139,5.97576 21.93838,12.79802 33.14705,17.62989 8.191,3.53102 33.02631,12.34872 34.84956,12.37326 0.66907,0.009 0.93859,-1.57454 0.93053,-5.46744 z m 235.07422,0.0958 c 27.12975,-9.29243 51.19011,-22.52542 70.24644,-38.635 l 2.02418,-1.71117 -1.52818,-4.53526 c -0.84045,-2.49441 -1.63755,-4.64789 -1.77129,-4.78552 -0.13367,-0.13758 -4.08677,2.46249 -8.78455,5.77808 -22.89344,16.15765 -43.31968,26.81714 -66.93793,34.93171 -7.74906,2.66234 -10.15734,3.79649 -10.1095,4.7609 0.0344,0.69631 0.11941,3.11846 0.18836,5.38259 l 0.12559,4.1166 3.95589,-1.17262 c 2.17576,-0.64496 7.84169,-2.50358 12.591,-4.13031 z M 179.03635,142.15943 c 4.74086,-3.74091 6.80614,-12.46399 4.6844,-19.78548 -3.20576,-11.06217 -11.90143,-12.87018 -16.58205,-3.4478 -3.47893,7.00329 -2.44621,17.29928 2.23454,22.27795 2.87677,3.0599 6.53736,3.42181 9.66311,0.95533 z m 418.99418,-0.75557 c 6.35813,-5.60009 6.57893,-19.21573 0.41699,-25.71369 -3.79431,-4.00122 -6.63831,-4.02182 -10.57118,-0.0766 -3.51883,3.52992 -4.796,7.86056 -4.31765,14.64034 0.79164,11.22022 8.04618,16.8095 14.47184,11.14991 z M 398.76321,105.87419 c 23.72057,-5.969563 39.32046,-24.663433 36.39628,-43.614828 -2.39092,-15.495289 -15.11484,-27.968482 -34.54057,-33.859927 -6.03876,-1.83144 -7.94961,-2.049386 -18.05603,-2.059414 -9.22758,-0.0093 -12.40922,0.287617 -17.33058,1.61656 -23.69742,6.399135 -39.01276,25.095437 -35.91573,43.844372 4.22914,25.60231 37.75152,42.049707 69.44663,34.073237 z"
       id="path12166"
       inkscape:connector-curvature="0" />
    <path
       style="opacity:0;fill:#f64100;fill-opacity:1;stroke:#000000;stroke-width:0;stroke-miterlimit:4;stroke-dasharray:none;stroke-opacity:1"
       d="m 286.45398,405.27348 c -8.88423,-1.40425 -17.35675,-5.90151 -20.3301,-10.7914 -3.54397,-5.82821 -2.56291,-10.84556 3.12349,-15.97424 6.44612,-5.81386 15.95984,-8.45475 27.91229,-7.74807 l 7.2777,0.43028 6.26393,-10.73541 c 15.37287,-26.34677 27.64062,-45.26602 42.87844,-66.12707 4.33677,-5.93717 8.35027,-11.46453 8.91885,-12.28301 1.02475,-1.47513 0.64776,-1.48811 -43.13809,-1.48811 l -44.17186,0 0,-45.20133 0,-45.20131 -8.10015,-2.48291 c -30.63325,-9.38996 -58.20772,-23.40321 -78.15528,-39.7183 l -6.00729,-4.91336 -1.59546,1.50356 c -3.4777,3.27743 -9.1751,3.24603 -13.38227,-0.0737 -2.57039,-2.02823 -5.61177,-8.51941 -6.2122,-13.25864 -1.35219,-10.67268 5.06626,-21.48223 12.75562,-21.48223 5.75443,0 10.81454,4.89088 12.54452,12.12497 1.03713,4.33681 2.75317,5.85717 18.45344,16.34926 21.26417,14.21026 39.29792,23.34904 59.52679,30.1658 l 9.79554,3.30091 0.19313,-56.67029 0.19316,-56.670307 25.23761,0 c 19.68741,0 25.23771,-0.207786 25.23818,-0.944846 7.6e-4,-1.745392 4.59024,-10.698007 7.39415,-14.424709 6.26488,-8.326719 19.47495,-16.348998 32.16419,-19.532873 9.64185,-2.419252 25.15205,-2.412385 34.2844,0.01518 8.62755,2.293374 18.89355,7.421812 24.95714,12.467451 5.68411,4.729876 11.93543,13.514608 13.43143,18.874649 l 0.98948,3.545151 27.02819,0 27.0282,0 0,56.617334 0,56.61733 5.08614,-1.52324 c 21.55533,-6.45551 49.40678,-20.81577 72.35896,-37.30841 8.55356,-6.14627 9.59823,-7.14367 10.1198,-9.66199 2.20634,-10.65259 11.0067,-16.33988 17.9846,-11.62264 5.47025,3.698 7.83527,9.74725 7.30704,18.68995 -0.80607,13.64638 -10.79247,21.09357 -19.36451,14.44074 l -1.82619,-1.4173 -5.84563,4.85146 c -18.34359,15.22384 -48.02418,30.44118 -76.58981,39.26784 l -9.2304,2.85218 0,45.21233 0,45.21236 -39.27162,0 -39.27162,0 2.00463,2.63647 c 15.1607,19.93931 32.01996,45.17464 46.70488,69.90899 6.04101,10.17513 11.07126,18.76383 11.17831,19.08597 0.10722,0.32213 2.56816,0.0814 5.46912,-0.53503 7.28984,-1.54898 14.88776,-1.42191 21.85451,0.36551 25.87205,6.63778 23.35386,28.28444 -3.83886,32.99902 -14.41135,2.49861 -29.78241,-2.12752 -35.26814,-10.61441 -2.05184,-3.17439 -2.53564,-7.16725 -1.27232,-10.50053 0.58085,-1.53257 -0.26203,-3.53604 -5.34752,-12.71016 -13.94167,-25.15052 -31.14465,-51.7903 -49.60705,-76.8193 l -10.15951,-13.77297 -6.96334,-0.0217 -6.96336,-0.0217 -7.04074,8.88156 c -21.68318,27.35223 -41.6897,57.98443 -54.25838,83.07566 -2.39816,4.78746 -2.57636,5.52021 -1.55037,6.3744 1.81576,1.51169 4.0631,6.44744 4.0631,8.92362 0,7.0622 -7.56978,13.99095 -18.08408,16.55272 -5.01913,1.22285 -14.11723,1.66108 -18.87481,0.90909 l 0,-4e-5 z m 15.53403,-5.35892 c 13.51404,-2.4978 20.22515,-10.86614 13.70142,-17.08492 -5.49896,-5.24197 -13.14152,-7.39551 -24.36661,-6.86608 -9.07177,0.42788 -15.20399,2.54103 -19.33657,6.66333 -5.02117,5.00875 -3.23102,10.28499 4.841,14.26802 7.50774,3.70461 15.96392,4.71947 25.16076,3.01965 z m 196.32319,0.0775 c 2.23232,-0.41184 6.22199,-1.85747 8.86596,-3.21246 10.79458,-5.53209 9.58711,-13.86926 -2.72887,-18.84174 -3.81342,-1.53965 -5.57072,-1.74716 -14.51115,-1.71356 -10.96251,0.0412 -14.30086,0.81657 -19.724,4.58111 -3.24369,2.25164 -5.45632,6.37541 -4.72482,8.80588 2.39434,7.95523 18.44901,13.0328 32.82288,10.38077 z m -30.38966,-23.43921 c 2.19876,-1.28764 3.12619,-2.29302 2.91101,-3.15564 -0.17368,-0.69626 -5.34014,-9.71011 -11.48102,-20.03075 -14.84037,-24.94141 -25.55724,-40.95881 -46.29346,-69.1901 l -2.61554,-3.56095 -5.14902,-0.0295 -5.149,-0.0295 1.38149,1.81771 c 21.43154,28.19913 43.4035,61.68167 57.95954,88.32312 2.44254,4.47049 4.61383,8.04201 4.82509,7.9367 0.21127,-0.10513 1.83618,-1.04178 3.61091,-2.08112 z m -149.40647,-6.58757 c 12.99448,-25.07207 29.37665,-50.45073 49.3545,-76.45819 3.93706,-5.12532 7.77995,-10.13593 8.53976,-11.13471 l 1.38147,-1.81596 -4.93306,0 -4.93311,0 -5.55101,7.36979 c -14.89374,19.77367 -28.08065,39.63745 -43.98116,66.25012 l -10.79225,18.06292 3.57368,1.71925 c 1.96554,0.94557 3.74322,1.74239 3.95044,1.7707 0.2072,0.0284 1.73306,-2.56545 3.39074,-5.76392 z m 170.48277,-200.71179 0.19097,-107.145618 -24.49145,0 -24.49145,0 0,3.676215 c 0,9.999074 -4.00455,19.746232 -11.34793,27.621045 -10.07267,10.801638 -22.59895,16.663868 -39.70192,18.580298 -12.90532,1.44606 -25.23272,-0.80354 -37.76605,-6.89188 -6.60915,-3.21053 -8.76985,-4.74872 -14.01038,-9.973985 -4.52495,-4.511771 -6.91841,-7.641862 -8.87422,-11.605424 -2.87339,-5.823072 -4.78032,-14.606154 -4.0933,-18.853178 l 0.41303,-2.553091 -22.9345,0 -22.93449,0 0,106.830668 c 0,58.75686 0.22724,107.05862 0.50499,107.33721 0.27771,0.27862 47.49414,0.42035 104.92535,0.31495 l 104.4204,-0.19161 0.19095,-107.1456 z m -213.82053,11.33815 -0.0116,-5.4801 -6.95857,-2.13643 c -22.41377,-6.88153 -48.2984,-20.13094 -71.06162,-36.37391 l -8.95601,-6.39067 -1.30754,4.68738 c -0.71913,2.57807 -1.31942,4.91235 -1.33399,5.18734 -0.0461,0.87066 12.86285,10.82938 20.70197,15.97068 9.11139,5.97576 21.93838,12.79802 33.14705,17.62989 8.191,3.53102 33.02631,12.34872 34.84956,12.37326 0.66907,0.009 0.93859,-1.57454 0.93053,-5.46744 z m 235.07422,0.0958 c 27.12975,-9.29243 51.19011,-22.52542 70.24644,-38.635 l 2.02418,-1.71117 -1.52818,-4.53526 c -0.84045,-2.49441 -1.63755,-4.64789 -1.77129,-4.78552 -0.13367,-0.13758 -4.08677,2.46249 -8.78455,5.77808 -22.89344,16.15765 -43.31968,26.81714 -66.93793,34.93171 -7.74906,2.66234 -10.15734,3.79649 -10.1095,4.7609 0.0344,0.69631 0.11941,3.11846 0.18836,5.38259 l 0.12559,4.1166 3.95589,-1.17262 c 2.17576,-0.64496 7.84169,-2.50358 12.591,-4.13031 z M 179.03635,142.15943 c 4.74086,-3.74091 6.80614,-12.46399 4.6844,-19.78548 -3.20576,-11.06217 -11.90143,-12.87018 -16.58205,-3.4478 -3.47893,7.00329 -2.44621,17.29928 2.23454,22.27795 2.87677,3.0599 6.53736,3.42181 9.66311,0.95533 z m 418.99418,-0.75557 c 6.35813,-5.60009 6.57893,-19.21573 0.41699,-25.71369 -3.79431,-4.00122 -6.63831,-4.02182 -10.57118,-0.0766 -3.51883,3.52992 -4.796,7.86056 -4.31765,14.64034 0.79164,11.22022 8.04618,16.8095 14.47184,11.14991 z M 398.76321,105.87419 c 23.72057,-5.969563 39.32046,-24.663433 36.39628,-43.614828 -2.39092,-15.495289 -15.11484,-27.968482 -34.54057,-33.859927 -6.03876,-1.83144 -7.94961,-2.049386 -18.05603,-2.059414 -9.22758,-0.0093 -12.40922,0.287617 -17.33058,1.61656 -23.69742,6.399135 -39.01276,25.095437 -35.91573,43.844372 4.22914,25.60231 37.75152,42.049707 69.44663,34.073237 z"
       id="path12168"
       inkscape:connector-curvature="0" />
    <path
       style="opacity:0;fill:#f64100;fill-opacity:1;stroke:#000000;stroke-width:0;stroke-miterlimit:4;stroke-dasharray:none;stroke-opacity:1"
       d="m 285.03459,404.92972 c -9.29749,-1.69459 -18.01323,-7.03413 -19.98838,-12.24555 -3.09919,-8.17716 2.37069,-15.73854 14.49113,-20.03206 3.95411,-1.40069 6.50117,-1.70542 14.91104,-1.78389 l 10.14235,-0.0949 1.99642,-3.34633 c 1.09806,-1.8405 6.02276,-10.14923 10.94377,-18.46389 10.68843,-18.05934 25.34805,-40.18897 37.43391,-56.50888 l 8.81117,-11.89799 -44.06169,0 -44.0617,0 -0.1943,-45.0686 -0.19432,-45.06859 -13.93981,-4.68533 c -17.13359,-5.75878 -24.3477,-8.76033 -38.59832,-16.05947 -12.41734,-6.36018 -24.90216,-14.39538 -33.65883,-21.66274 l -5.84565,-4.85145 -1.82616,1.41731 c -8.57205,6.65283 -18.55846,-0.79437 -19.36452,-14.44074 -0.3769,-6.38097 0.52969,-10.66721 3.04974,-14.41848 4.70081,-6.99753 12.25006,-7.89332 17.64423,-2.09367 2.02972,2.18229 4.71729,7.99094 4.73962,10.2438 0.0331,3.35927 30.19537,23.27713 50.12452,33.10032 14.16508,6.98201 36.43452,15.35596 37.63492,14.15177 0.22935,-0.2301 0.41701,-25.70242 0.41701,-56.60521 l 0,-56.186876 24.76105,0 24.76102,0 1.60584,-4.209503 c 7.77676,-20.38592 33.24518,-34.295391 59.62047,-32.561473 22.4425,1.47538 41.85262,12.776066 49.38499,28.752199 1.39332,2.955262 2.71249,5.968459 2.93147,6.695991 0.36943,1.227476 2.3268,1.322786 27.16637,1.322786 l 26.76826,0 0.19315,56.643796 0.19314,56.64378 8.66528,-2.85838 c 24.28501,-8.01079 51.08702,-22.46498 73.95253,-39.88223 3.69063,-2.81126 4.37309,-3.74043 5.15797,-7.02235 1.83944,-7.69187 7.28685,-12.60606 13.22911,-11.93417 10.38551,1.17429 15.59052,16.8054 9.68388,29.08137 -1.0454,2.17263 -2.76667,4.63357 -3.82508,5.46872 -4.20717,3.31979 -9.90458,3.3512 -13.38228,0.0737 l -1.59543,-1.50355 -6.00732,4.91921 c -18.835,15.42348 -44.09046,28.56732 -72.8718,37.925 l -13.36577,4.34562 -0.01,45.16367 -0.01,45.16369 -38.80544,0 c -21.34299,0 -38.80544,0.19589 -38.80544,0.43533 0,0.23943 1.47344,2.36535 3.2743,4.72425 13.79659,18.07152 29.72026,42.0583 45.15431,68.01861 10.9162,18.36119 11.45307,19.11185 13.30875,18.60852 14.65032,-3.97372 30.86268,-1.1122 38.79774,6.84785 11.67057,11.70734 -2.53528,26.35322 -25.5615,26.35322 -14.34756,0 -25.55861,-5.31478 -28.71829,-13.61441 -1.10818,-2.91083 -1.17573,-3.96524 -0.43266,-6.75225 0.87171,-3.26947 0.83388,-3.38871 -3.74972,-11.82178 -14.05646,-25.86279 -31.19838,-52.33321 -52.87506,-81.65008 l -8.24364,-11.14918 -6.92616,0 -6.92612,0 -6.42215,8.12566 c -21.74178,27.509 -42.83063,59.71013 -54.18919,82.743 l -3.24904,6.58836 1.56814,1.7263 c 2.49134,2.7426 3.38904,5.01929 3.38904,8.59503 0,7.92474 -8.08726,14.28273 -21.13785,16.61794 -6.94648,1.243 -10.14228,1.23868 -17.0646,-0.023 l 0,-4e-5 z m 18.32111,-5.33056 c 6.18947,-1.46386 9.93499,-3.43805 12.85718,-6.7767 2.74346,-3.13446 2.95637,-5.10372 0.91496,-8.46225 -3.11113,-5.11835 -12.52586,-8.56323 -23.40302,-8.56323 -18.25253,0 -29.89025,9.30741 -22.02658,17.61603 5.87142,6.20363 19.95081,8.95488 31.65746,6.18615 z m 194.99532,0.3154 c 13.0703,-2.41577 19.61219,-10.04805 14.17178,-16.53395 -4.06355,-4.84447 -12.16002,-7.56569 -22.51032,-7.56569 -24.63899,0 -33.69326,16.17072 -12.80957,22.87755 6.74317,2.16555 13.82833,2.57499 21.14811,1.22209 z m -31.34173,-22.7948 c 1.14398,-0.9354 2.64251,-2.04087 3.33007,-2.45661 2.45841,-1.4865 -29.47806,-52.73857 -50.75096,-81.44578 l -9.38215,-12.66092 -4.74195,0 c -2.6081,0 -4.74199,0.16258 -4.74199,0.36128 0,0.19873 3.91122,5.64272 8.69159,12.09779 19.16013,25.87253 34.39274,49.67142 52.86381,82.59249 0.99134,1.76686 1.99348,3.21247 2.22702,3.21247 0.23353,0 1.36057,-0.76533 2.50456,-1.70072 z M 320.16566,366.91542 c 13.98762,-26.35082 29.10166,-49.48597 49.39784,-75.61374 4.29012,-5.52272 7.80022,-10.19972 7.80022,-10.3933 0,-0.19357 -2.13162,-0.35193 -4.73695,-0.35193 l -4.73693,0 -2.95949,3.96836 c -17.61734,23.62294 -31.06495,43.71526 -45.96832,68.6821 -6.00634,10.06214 -10.92065,18.51799 -10.92065,18.79079 0,0.27278 1.61063,1.20533 3.57914,2.07229 1.96853,0.86695 3.63574,1.6102 3.70486,1.65165 0.0692,0.0414 2.24726,-3.92135 4.84028,-8.80622 z m 168.71657,-197.47296 0,-107.33457 -24.48886,0 -24.48888,0 0,5.153947 c 0,20.739853 -18.2823,38.696403 -44.83344,44.034583 -5.81562,1.16926 -19.80428,1.16916 -25.61913,-1.8e-4 -20.83624,-4.19006 -36.56694,-15.838061 -42.60319,-31.546045 -1.10403,-2.872982 -1.82178,-6.723954 -2.05549,-11.02838 l -0.3591,-6.613925 -22.51294,0 -22.51295,0 0,107.33457 0,107.3346 104.73699,0 104.73699,0 0,-107.3346 z m -213.39685,11.27187 -0.22139,-5.35745 -9.79555,-3.24631 c -22.99302,-7.62006 -46.58909,-19.89652 -68.64642,-35.71507 -4.79987,-3.44227 -8.86522,-6.25866 -9.03411,-6.25866 -0.16889,0 -0.30706,0.8076 -0.30706,1.79465 0,0.98707 -0.51226,3.25108 -1.13831,5.03113 -0.62606,1.78004 -1.04992,3.29689 -0.94188,3.37078 0.10802,0.0737 2.53365,2.09905 5.39022,4.50033 11.53771,9.69879 29.53388,20.47988 46.75074,28.00721 9.19845,4.02164 35.0763,13.22715 37.19025,13.22966 0.72674,7.6e-4 0.91853,-1.36261 0.75351,-5.35627 z m 232.55643,0.70989 c 20.57235,-6.95004 38.73722,-15.61313 54.30702,-25.89985 8.56306,-5.65748 19.96784,-14.50347 19.96784,-15.4878 0,-0.94303 -2.42866,-7.97374 -2.96238,-8.57585 -0.27588,-0.31121 -4.32994,2.14231 -9.00908,5.45224 -22.29174,15.76878 -46.50341,28.23452 -69.164,35.61017 l -7.66887,2.49609 -0.24293,5.44387 -0.24291,5.44388 1.88377,-0.34143 c 1.03607,-0.18779 6.94527,-2.05139 13.13154,-4.14132 z M 179.38614,141.9568 c 2.99802,-2.78723 4.52424,-6.46585 4.90147,-11.81393 0.47029,-6.66696 -0.82498,-11.01763 -4.32557,-14.52926 -3.93286,-3.94526 -6.77685,-3.92466 -10.57117,0.0766 -3.00818,3.17223 -4.51515,7.55613 -4.51515,13.135 0,10.78283 8.63315,18.59566 14.51042,13.13163 z m 419.079,-0.7527 c 8.53692,-9.08025 3.4841,-30.04652 -6.77578,-28.11569 -6.885,1.2957 -10.96822,15.64024 -6.77018,23.78392 3.71106,7.19902 9.20004,8.95432 13.54596,4.33177 z M 397.30263,106.17659 c 15.98521,-3.58866 28.97338,-12.925365 34.90108,-25.08902 2.71766,-5.576638 2.80301,-6.005079 2.80301,-14.06648 0,-7.991505 -0.10523,-8.534975 -2.71134,-13.983731 -5.90502,-12.346525 -17.59571,-21.023896 -34.21031,-25.392423 -7.35802,-1.934663 -24.29662,-1.941014 -31.52373,-0.01182 -18.75648,5.006831 -31.17826,15.10924 -35.93389,29.224425 -1.3417,3.982247 -1.58747,6.133937 -1.34536,11.777518 0.26256,6.120032 0.614,7.550102 3.09121,12.57815 9.984,20.264891 37.95532,31.019031 64.92933,24.963381 z"
       id="path12170"
       inkscape:connector-curvature="0" />
    <path
       style="opacity:0;fill:#00ffff;fill-opacity:1;stroke:#000000;stroke-width:0;stroke-miterlimit:4;stroke-dasharray:none;stroke-opacity:1"
       d="m 459.87649,369.83364 c -13.92482,-25.47403 -32.88718,-54.69683 -52.14421,-80.35918 -3.02664,-4.03331 -5.50297,-7.51981 -5.50297,-7.74773 0,-0.22793 1.7024,-0.41442 3.78307,-0.41442 l 3.78305,0 9.10738,12.28302 c 12.77887,17.23463 26.78933,38.37745 38.79264,58.54097 5.64322,9.47964 10.86841,18.25615 11.61151,19.50336 l 1.35111,2.26762 -3.19872,1.97336 -3.19872,1.97338 -4.38414,-8.02038 z"
       id="path12172"
       inkscape:connector-curvature="0" />
    <path
       style="opacity:0;fill:#00ffff;fill-opacity:1;stroke:#000000;stroke-width:0;stroke-miterlimit:4;stroke-dasharray:none;stroke-opacity:1"
       d="m 459.87649,369.83364 c -13.92482,-25.47403 -32.88718,-54.69683 -52.14421,-80.35918 -3.02664,-4.03331 -5.50297,-7.51981 -5.50297,-7.74773 0,-0.22793 1.7024,-0.41442 3.78307,-0.41442 l 3.78305,0 9.10738,12.28302 c 12.77887,17.23463 26.78933,38.37745 38.79264,58.54097 5.64322,9.47964 10.86841,18.25615 11.61151,19.50336 l 1.35111,2.26762 -3.19872,1.97336 -3.19872,1.97338 -4.38414,-8.02038 z"
       id="path12174"
       inkscape:connector-curvature="0" />
    <path
       style="opacity:0;fill:#00ffff;fill-opacity:1;stroke:#000000;stroke-width:0;stroke-miterlimit:4;stroke-dasharray:none;stroke-opacity:1"
       d="m 459.87649,369.83364 c -13.92482,-25.47403 -32.88718,-54.69683 -52.14421,-80.35918 -3.02664,-4.03331 -5.50297,-7.51981 -5.50297,-7.74773 0,-0.22793 1.7024,-0.41442 3.78307,-0.41442 l 3.78305,0 9.10738,12.28302 c 12.77887,17.23463 26.78933,38.37745 38.79264,58.54097 5.64322,9.47964 10.86841,18.25615 11.61151,19.50336 l 1.35111,2.26762 -3.19872,1.97336 -3.19872,1.97338 -4.38414,-8.02038 z"
       id="path12176"
       inkscape:connector-curvature="0" />
    <path
       style="fill:#429aff;fill-opacity:1;stroke:#000000;stroke-width:1.28297222;stroke-miterlimit:4;stroke-dasharray:none;stroke-opacity:1"
       d="m 456.40919,363.70816 c -13.61366,-24.0847 -28.61069,-47.05575 -47.2548,-72.38048 l -7.37335,-10.01537 4.07757,0 4.07757,0 7.07736,9.63743 c 11.23025,15.29252 15.70433,21.69182 23.91335,34.20343 7.98345,12.16788 29.77886,48.33905 29.30999,48.64223 -0.1471,0.0952 -1.49992,1.08198 -3.00614,2.19295 l -2.73854,2.01993 -8.08301,-14.30012 z"
       id="path4232"
       inkscape:connector-curvature="0" />
    <path
       inkscape:connector-curvature="0"
       id="path4297"
       d="m 456.40919,363.70816 c -13.61366,-24.0847 -28.61069,-47.05575 -47.2548,-72.38048 l -7.37335,-10.01537 4.07757,0 4.07757,0 7.07736,9.63743 c 11.23025,15.29252 15.70433,21.69182 23.91335,34.20343 7.98345,12.16788 29.77886,48.33905 29.30999,48.64223 -0.1471,0.0952 -1.49992,1.08198 -3.00614,2.19295 l -2.73854,2.01993 -8.08301,-14.30012 z"
       style="fill:#429aff;fill-opacity:1;stroke:#000000;stroke-width:1.28297222;stroke-miterlimit:4;stroke-dasharray:none;stroke-opacity:1" />
    <path
       style="fill:#429aff;fill-opacity:1;stroke:#000000;stroke-width:1.28297222;stroke-miterlimit:4;stroke-dasharray:none;stroke-opacity:1"
       d="m 322.11929,363.14126 c 13.61365,-24.08472 28.61069,-47.05576 47.25478,-72.38048 l 7.37336,-10.01539 -4.07757,0 -4.07757,0 -7.07737,9.63745 c -11.23024,15.29252 -15.70433,21.69182 -23.91333,34.20343 -7.98349,12.16787 -29.77889,48.33904 -29.31,48.64223 0.14708,0.0952 1.49991,1.08197 3.00613,2.19293 l 2.73855,2.01993 8.08302,-14.3001 z"
       id="path4299"
       inkscape:connector-curvature="0" />
  </g>
</svg>
